<?xml version="1.0" standalone="no"?>
<!DOCTYPE svg PUBLIC "-//W3C//DTD SVG 1.1//EN" "http://www.w3.org/Graphics/SVG/1.1/DTD/svg11.dtd" >
<svg xmlns="http://www.w3.org/2000/svg" xmlns:xlink="http://www.w3.org/1999/xlink" version="1.1">
<metadata>
Created by FontForge 20160407 at Thu Aug 18 11:19:00 2016
 By Jimmy Warting
Copyright (c) 2015 by MaryamSoft.com. All rights reserved.
</metadata>
<defs>
<font id="web_Yekan" horiz-adv-x="0" >
  <font-face 
    font-family="web_Yekan"
    font-weight="400"
    font-stretch="normal"
    units-per-em="1000"
    panose-1="2 0 5 0 0 0 0 2 0 4"
    ascent="800"
    descent="-200"
    x-height="500"
    cap-height="700"
    bbox="-289 -459 2252 1001"
    underline-thickness="30"
    underline-position="-500"
    unicode-range="U+001D-25E6"
  />
<missing-glyph horiz-adv-x="500" 
 />
    <glyph glyph-name=".notdef" horiz-adv-x="500" 
 />
    <glyph glyph-name=".null" 
 />
    <glyph glyph-name=".null" 
 />
    <glyph glyph-name="nonmarkingreturn" horiz-adv-x="333" 
 />
    <glyph glyph-name="space" unicode=" " horiz-adv-x="187" 
 />
    <glyph glyph-name="exclam" unicode="!" horiz-adv-x="337" 
d="M264 641v-220l-23 -226h-52l-24 226v220h99zM156 59q0 25 17 42.5t42 17.5t42.5 -17.5t17.5 -42.5t-17.5 -42t-42.5 -17t-42 17t-17 42z" />
    <glyph glyph-name="quotedbl" unicode="&#x22;" horiz-adv-x="401" 
d="M239 710h107l-21 -283h-65zM56 710h106l-21 -283h-64z" />
    <glyph glyph-name="numbersign" unicode="#" horiz-adv-x="728" 
d="M658 471v-66h-143l-45 -184h131v-65h-148l-51 -206h-63l51 206h-132l-51 -206h-63l51 206h-126v65h143l45 184h-131v66h148l52 206h63l-52 -206h132l52 206h62l-51 -206h126zM408 221l46 185h-134l-46 -185h134z" />
    <glyph glyph-name="dollar" unicode="$" horiz-adv-x="546" 
d="M500 136q0 -72 -55 -124q-56 -52 -138 -62v-176h-56v174q-117 2 -199 44v98h7q80 -60 192 -70v211q-5 1 -18 4t-23.5 6t-18.5 5q-136 38 -136 161q0 69 54 120q56 51 142 60v133h56v-132q92 -5 170 -37v-97h-8q-79 56 -162 63v-210q12 -2 32.5 -7.5t21.5 -5.5
q139 -33 139 -158zM251 314v202q-46 -4 -75 -29t-29 -68q0 -44 22.5 -67.5t81.5 -37.5zM408 123q0 45 -23 67.5t-78 33.5v-203q101 12 101 102z" />
    <glyph glyph-name="percent" unicode="%" horiz-adv-x="977" 
d="M394 475q0 -215 -172 -215t-172 215q0 216 172 216t172 -216zM639 677h80l-381 -727h-80zM926 152q0 -216 -172 -216t-172 215q0 216 172 216t172 -215zM307 475q0 79 -18.5 115t-66.5 36t-66.5 -36.5t-18.5 -114.5t18 -114t67 -36q48 0 66.5 36.5t18.5 113.5zM839 152
q0 79 -18 114.5t-67 35.5q-48 0 -66.5 -36.5t-18.5 -114.5t18 -114t67 -36t67 36t18 115z" />
    <glyph glyph-name="ampersand" unicode="&#x26;" horiz-adv-x="674" 
d="M531 130l175 -180h-125l-100 104q-50 -63 -102.5 -91t-118.5 -28q-98 0 -163 59q-64 60 -64 156q0 77 43 133q23 32 91 79q-51 35 -74.5 71.5t-23.5 90.5q0 65 51 116q52 52 142 52q82 0 132 -43q52 -42 52 -108q0 -59 -29 -99q-36 -55 -111 -81l172 -177q9 60 9 210h96
v-47q0 -120 -52 -217zM438 97l-224 230q-32 -22 -51 -51q-30 -43 -30 -103q0 -70 41.5 -114.5t111.5 -44.5q94 0 152 83zM260 395q51 18 73 59q17 36 17 78q0 46 -27 72.5t-65 26.5q-42 0 -67.5 -29t-25.5 -74q0 -36 19 -66q22 -34 76 -67z" />
    <glyph glyph-name="quotesingle" unicode="'" horiz-adv-x="211" 
d="M51 710h109l-21 -283h-67z" />
    <glyph glyph-name="parenleft" unicode="(" horiz-adv-x="332" 
d="M322 -159h-95q-155 173 -155 426q0 254 155 433h96q-152 -185 -152 -432q0 -245 151 -427z" />
    <glyph glyph-name="parenright" unicode=")" horiz-adv-x="332" 
d="M106 -159h-96q152 182 152 427q0 247 -152 432h96q155 -179 155 -433q0 -253 -155 -426z" />
    <glyph glyph-name="asterisk" unicode="*" horiz-adv-x="546" 
d="M319 484l173 -101l-32 -54l-160 106l4 -177h-61l3 177l-159 -106l-32 54l173 101l-173 101l32 53l159 -106l-3 178h61l-4 -178l160 106l32 -54z" />
    <glyph glyph-name="plus" unicode="+" horiz-adv-x="555" 
d="M307 249v156h92v-156h156v-93h-156v-156h-92v156h-157v93h157z" />
    <glyph glyph-name="comma" unicode="," horiz-adv-x="305" 
d="M304 109q0 -108 -11 -144q-22 -71 -102 -78v35q30 6 46 25.5t19.5 40t3.5 52.5q-63 -12 -91 31q-23 36 -3 70q18 30 63 30q75 0 75 -62z" />
    <glyph glyph-name="hyphen" unicode="-" horiz-adv-x="402" 
d="M337 231h-267v84h267v-84z" />
    <glyph glyph-name="period" unicode="." horiz-adv-x="365" 
d="M156 74q0 30 21.5 51t52.5 21q30 0 51 -21t21 -51t-21 -52t-51 -22q-31 0 -52.5 22t-21.5 52z" />
    <glyph glyph-name="slash" unicode="/" horiz-adv-x="414" 
d="M423 700l-338 -816h-103l337 816h104z" />
    <glyph glyph-name="zero" unicode="0" horiz-adv-x="555" 
d="M270 -12q-109 0 -170.5 89.5t-61.5 258.5q0 185 64 280.5t185 95.5q231 0 231 -359q0 -178 -65.5 -271.5t-182.5 -93.5zM281 622q-127 0 -127 -281q0 -263 125 -263q123 0 123 267q0 277 -121 277z" />
    <glyph glyph-name="one" unicode="1" horiz-adv-x="402" 
d="M300 716v-716h-113v577q-31 -22 -66.5 -37.5t-80.5 -26.5v96q28 10 54.5 20t52 23t52 28.5t53.5 35.5h48z" />
    <glyph glyph-name="two" unicode="2" horiz-adv-x="555" 
d="M487 0h-439v54q0 33 9 62.5t25 55t37 48t45 44t48.5 41t48.5 39.5q23 19 41.5 37.5t31.5 38t20.5 41t7.5 47.5q0 28 -8.5 48.5t-24 34.5t-36.5 21t-46 7q-43 0 -87.5 -20t-85.5 -60v109q22 16 44 28t45.5 20t49 12t55.5 4q47 0 85.5 -12.5t66 -36.5t42.5 -60.5t15 -82.5
q0 -43 -10.5 -77t-30 -63t-47 -55.5t-60.5 -54.5q-29 -23 -57 -44.5t-50.5 -42.5t-36.5 -41.5t-14 -41.5v-3h316v-97z" />
    <glyph glyph-name="three" unicode="3" horiz-adv-x="555" 
d="M60 26v106q68 -54 154 -54q70 0 112 32t42 86q0 119 -182 119h-55v91h52q162 0 162 112q0 104 -126 104q-71 0 -133 -51v101q72 40 169 40q93 0 149 -47t56 -120q0 -138 -140 -178v-2q76 -7 119.5 -52.5t43.5 -114.5q0 -94 -70.5 -152t-186.5 -58q-104 0 -166 38z" />
    <glyph glyph-name="four" unicode="4" horiz-adv-x="576" 
d="M452 700v-452h104v-94h-104v-154h-110v154h-317v95q43 48 88.5 104.5t87 115.5t77 118t60.5 113h114zM342 248v294q-53 -96 -105 -167t-97 -127h202z" />
    <glyph glyph-name="five" unicode="5" horiz-adv-x="555" 
d="M76 16v109q69 -46 139 -46q72 0 115.5 36t43.5 97q0 59 -44.5 92.5t-126.5 33.5q-29 0 -115 -6l25 368h345v-96h-251l-12 -176q34 2 61 2q112 0 172.5 -57t60.5 -156q0 -104 -69.5 -167t-190.5 -63q-103 0 -153 29z" />
    <glyph glyph-name="six" unicode="6" horiz-adv-x="558" 
d="M520 225q0 -53 -17.5 -96.5t-48 -75t-73 -48.5t-91.5 -17q-53 0 -97 20.5t-76 61t-49.5 100.5t-17.5 140q0 97 23 172.5t63.5 126t95.5 77t118 26.5q40 0 72.5 -5.5t51.5 -14.5v-102q-25 13 -53 21.5t-65 8.5q-41 0 -75.5 -16.5t-60 -48.5t-39.5 -79t-15 -109h3
q22 35 60.5 55t90.5 20q46 0 82.5 -15t63 -43t40.5 -68.5t14 -90.5zM406 216q0 30 -7 55t-21.5 43t-36.5 27.5t-51 9.5t-51.5 -10.5t-37.5 -27.5t-22.5 -39t-7.5 -45q0 -25 7 -51t21.5 -47.5t37.5 -35.5t54 -14q28 0 49.5 10.5t36 28.5t22 42.5t7.5 53.5z" />
    <glyph glyph-name="seven" unicode="7" horiz-adv-x="536" 
d="M502 644q-44 -81 -83 -160t-71 -158.5t-55 -160.5t-36 -165h-119q12 75 33.5 150t51 150t66 150.5t77.5 153.5h-332v96h468v-56z" />
    <glyph glyph-name="eight" unicode="8" horiz-adv-x="555" 
d="M44 195q0 31 8 59t23 52t38 43t54 31q-46 25 -73 65t-27 88q0 39 16 71.5t44 56.5t66 37.5t83 13.5q46 0 84 -13.5t66.5 -37.5t44 -57t15.5 -71q0 -48 -27 -88t-71 -65q30 -12 53 -30.5t39 -42.5t23.5 -52.5t7.5 -59.5q0 -46 -17 -84t-47.5 -65t-73.5 -42t-95 -15
q-51 0 -94 15t-74 42t-48.5 65t-17.5 84zM155 205q0 -30 8.5 -54t25 -40.5t39 -25t50.5 -8.5q27 0 49.5 9t38.5 25.5t25.5 40.5t9.5 53q0 27 -9 50.5t-25 41t-38.5 28t-50.5 10.5q-27 0 -49.5 -9.5t-39 -27t-25.5 -41.5t-9 -52zM179 521q0 -21 7.5 -40t21 -33t31 -22
t38.5 -8q20 0 38 8.5t31.5 22t21 32.5t7.5 40q0 22 -7.5 41.5t-20.5 33t-31 21.5t-39 8q-22 0 -40 -8.5t-31 -22.5t-20 -33t-7 -40z" />
    <glyph glyph-name="nine" unicode="9" horiz-adv-x="558" 
d="M511 388q0 -105 -22.5 -180.5t-62.5 -124.5t-93.5 -72t-114.5 -23q-20 0 -40.5 2.5t-38.5 6t-33 8.5t-25 9v102q10 -6 25.5 -12.5t33 -12t37 -8.5t37.5 -3q41 0 75 16t58 48t37 79t13 109h-2q-9 -16 -23.5 -29.5t-33 -24t-41 -17t-48.5 -6.5q-44 0 -82 15.5t-65.5 43.5
t-43.5 68.5t-16 90.5q0 55 18 99t50 75t75 48t93 17q47 0 89.5 -18t74.5 -56.5t50.5 -100t18.5 -149.5zM393 463q0 35 -9 64t-25 49.5t-38.5 31.5t-48.5 11q-23 0 -44.5 -9.5t-37.5 -27t-25 -42.5t-9 -55q0 -33 9 -58.5t25 -43t38.5 -26.5t50.5 -9q24 0 45 9t36 24.5
t24 36.5t9 45z" />
    <glyph glyph-name="colon" unicode=":" horiz-adv-x="294" 
d="M157 67q0 29 20.5 49t47.5 20q28 0 48.5 -20t20.5 -49q0 -27 -20.5 -47t-48.5 -20q-27 0 -47.5 20t-20.5 47zM156 304q0 28 20 48t48 20t48 -20t20 -48t-20 -48t-48 -20t-48 20t-20 48z" />
    <glyph glyph-name="semicolon" unicode=";" horiz-adv-x="354" 
d="M235 495v-139h-116v139h116zM146 89h122l-137 -320h-71z" />
    <glyph glyph-name="less" unicode="&#x3c;" horiz-adv-x="611" 
d="M611 -3v-103l-461 268v90l461 270v-103l-365 -212z" />
    <glyph glyph-name="equal" unicode="=" horiz-adv-x="555" 
d="M150 64v92h405v-92h-405zM150 231v93h405v-93h-405z" />
    <glyph glyph-name="greater" unicode="&#x3e;" horiz-adv-x="611" 
d="M150 -106v103l365 210l-365 212v103l461 -270v-90z" />
    <glyph glyph-name="question" unicode="?" horiz-adv-x="474" 
d="M445 506q0 -88 -58 -151q-45 -48 -130 -98v-112h-88v149q8 5 18.5 11t24 15t21.5 14q35 21 57 43q56 53 56 122q0 53 -34 81t-91 28q-86 0 -162 -50h-6v100q88 34 177 34q99 0 157 -50.5t58 -135.5zM265 53v-103h-100v103h100z" />
    <glyph glyph-name="at" unicode="@" horiz-adv-x="909" 
d="M849 274q0 -141 -72 -247h-205l-12 56q-27 -23 -41.5 -33t-39 -18.5t-55.5 -8.5q-77 0 -124 61.5t-47 173.5q0 114 59 179q58 64 135 64q53 0 112 -32v23h77v-411h111q19 35 27 90q8 59 8 100q0 159 -82 256q-81 98 -233 98q-145 0 -239 -105q-94 -104 -94 -255
q0 -161 91 -261t239 -100q91 0 166 23v-70q-72 -17 -166 -17q-173 0 -287 118q-113 119 -113 308q0 179 117 302t285 123q180 0 281 -116q102 -115 102 -301zM558 149v253q-53 27 -99 27q-57 0 -89.5 -42.5t-32.5 -126.5q0 -162 106 -162q52 0 115 51z" />
    <glyph glyph-name="A" unicode="A" horiz-adv-x="671" 
d="M662 0h-128l-63 178h-275l-61 -178h-127l263 700h130zM440 273l-97 279q-4 14 -9 44h-2q-4 -28 -10 -44l-96 -279h214z" />
    <glyph glyph-name="B" unicode="B" horiz-adv-x="604" 
d="M86 0v700h223q101 0 160.5 -44.5t59.5 -115.5q0 -60 -34 -103.5t-93 -62.5v-2q72 -8 115.5 -53.5t43.5 -117.5q0 -90 -71 -145.5t-179 -55.5h-225zM202 607v-199h75q61 0 95.5 28.5t34.5 80.5q0 90 -120 90h-85zM202 314v-221h99q65 0 100.5 30t35.5 83q0 108 -151 108
h-84z" />
    <glyph glyph-name="C" unicode="C" horiz-adv-x="621" 
d="M575 29q-79 -41 -197 -41q-152 0 -244 96.5t-92 252.5q0 168 103.5 271.5t260.5 103.5q102 0 169 -29v-115q-71 42 -157 42q-113 0 -183.5 -73t-70.5 -194q0 -116 65.5 -184.5t173.5 -68.5q99 0 172 47v-108z" />
    <glyph glyph-name="D" unicode="D" horiz-adv-x="717" 
d="M86 0v700h203q387 0 387 -341q0 -162 -107.5 -260.5t-288.5 -98.5h-194zM202 602v-504h93q122 0 190.5 67.5t68.5 190.5q0 246 -255 246h-97z" />
    <glyph glyph-name="E" unicode="E" horiz-adv-x="518" 
d="M479 0h-393v700h378v-98h-261v-199h240v-98h-240v-207h276v-98z" />
    <glyph glyph-name="F" unicode="F" horiz-adv-x="502" 
d="M464 602h-261v-211h241v-98h-241v-293h-117v700h378v-98z" />
    <glyph glyph-name="G" unicode="G" horiz-adv-x="697" 
d="M633 48q-110 -60 -244 -60q-155 0 -251 97t-96 256q0 162 105 266.5t267 104.5q117 0 196 -34v-120q-80 54 -192 54q-111 0 -182.5 -74t-71.5 -191q0 -120 61.5 -189.5t166.5 -69.5q72 0 125 28v167h-147v97h263v-332z" />
    <glyph glyph-name="H" unicode="H" horiz-adv-x="735" 
d="M649 0h-117v304h-329v-304h-117v700h117v-294h329v294h117v-700z" />
    <glyph glyph-name="I" unicode="I" horiz-adv-x="292" 
d="M206 0h-120v700h120v-700z" />
    <glyph glyph-name="J" unicode="J" horiz-adv-x="396" 
d="M316 251q0 -125 -61.5 -194t-163.5 -69q-48 0 -79 12v109q28 -19 72 -19q116 0 116 180v430h116v-449z" />
    <glyph glyph-name="K" unicode="K" horiz-adv-x="611" 
d="M616 0h-151l-244 320q-13 18 -16 25h-2v-345h-117v700h117v-329h2q5 11 16 24l235 305h139l-275 -336z" />
    <glyph glyph-name="L" unicode="L" horiz-adv-x="489" 
d="M474 0h-388v700h117v-602h271v-98z" />
    <glyph glyph-name="M" unicode="M" horiz-adv-x="924" 
d="M838 0h-115v453q0 56 7 136h-2q-11 -46 -19 -66l-209 -523h-80l-210 520q-8 22 -18 69h-2q4 -42 4 -137v-452h-108v700h164l184 -466q21 -54 27 -80h3q18 55 29 82l188 464h157v-700z" />
    <glyph glyph-name="N" unicode="N" horiz-adv-x="767" 
d="M680 0h-127l-334 515q-13 19 -21 40h-3q4 -22 4 -96v-459h-113v700h136l323 -502q20 -31 26 -43h2q-5 28 -5 94v451h112v-700z" />
    <glyph glyph-name="O" unicode="O" horiz-adv-x="756" 
d="M375 -12q-151 0 -242 98.5t-91 255.5q0 169 92.5 269.5t251.5 100.5q148 0 238 -97.5t90 -255.5q0 -171 -92.5 -271t-246.5 -100zM380 610q-96 0 -156 -72t-60 -189t58.5 -188t152.5 -71q101 0 159 68t58 190q0 125 -56.5 193.5t-155.5 68.5z" />
    <glyph glyph-name="P" unicode="P" horiz-adv-x="584" 
d="M202 254v-254h-116v700h213q120 0 186.5 -56t66.5 -158t-69 -167t-188 -65h-93zM202 604v-255h75q75 0 114 34.5t39 97.5q0 123 -143 123h-85z" />
    <glyph glyph-name="Q" unicode="Q" horiz-adv-x="756" 
d="M375 -12q-76 0 -137.5 26t-105 72.5t-67 111.5t-23.5 144q0 84 24 152.5t68.5 116.5t108.5 74.5t143 26.5q73 0 134 -26t104 -72.5t66.5 -111.5t23.5 -143q0 -104 -34.5 -181.5t-97.5 -125.5l203 -146h-177l-125 97q-25 -7 -52 -11t-56 -4zM380 610q-47 0 -87 -19
t-69 -53.5t-44.5 -82t-15.5 -106.5q0 -58 15 -106t43 -82t67 -52.5t86 -18.5q51 0 91 17.5t68 50.5t43 81t15 109q0 62 -14.5 111t-42 82.5t-66.5 51t-89 17.5z" />
    <glyph glyph-name="R" unicode="R" horiz-adv-x="623" 
d="M627 0h-135l-112 188q-15 25 -29.5 43.5t-29.5 30t-32.5 17t-39.5 5.5h-47v-284h-116v700h231q49 0 90.5 -11.5t72.5 -35.5t48 -59t17 -83q0 -37 -11 -68t-31 -55t-48.5 -41t-64.5 -27v-2q19 -10 33.5 -23t27 -27t25 -31t27.5 -40zM202 606v-228h97q27 0 49.5 8.5t39 24
t26 38t9.5 50.5q0 50 -32 78.5t-91 28.5h-98z" />
    <glyph glyph-name="S" unicode="S" horiz-adv-x="544" 
d="M54 28v119q16 -14 38.5 -26t47.5 -20t49.5 -12.5t45.5 -4.5q74 0 109.5 24.5t35.5 71.5q0 25 -12 43t-33.5 33t-50.5 29t-62 29q-35 19 -66 39t-53.5 43.5t-35.5 53t-13 70.5q0 49 22 85.5t58.5 60t83 35t94.5 11.5q110 0 160 -25v-115q-59 43 -153 43q-26 0 -51.5 -5
t-46 -16t-33 -28.5t-12.5 -42.5q0 -23 9.5 -40.5t28.5 -31.5t46 -27.5t63 -28.5q36 -20 68.5 -41t57.5 -46t39 -56t14 -71q0 -53 -21.5 -89.5t-57.5 -59.5t-83.5 -33.5t-100.5 -10.5q-17 0 -43 3t-52.5 8t-50.5 12.5t-39 16.5z" />
    <glyph glyph-name="T" unicode="T" horiz-adv-x="552" 
d="M536 602h-202v-602h-116v602h-200v98h518v-98z" />
    <glyph glyph-name="U" unicode="U" horiz-adv-x="703" 
d="M625 283q0 -295 -279 -295q-268 0 -268 284v428h116v-404q0 -206 160 -206q155 0 155 199v411h116v-417z" />
    <glyph glyph-name="V" unicode="V" horiz-adv-x="642" 
d="M635 700l-251 -700h-130l-247 700h127l173 -531q8 -25 12 -59h2q4 28 14 60l177 530h123z" />
    <glyph glyph-name="W" unicode="W" horiz-adv-x="966" 
d="M955 700l-192 -700h-131l-133 490q-9 31 -11 68h-2q-2 -35 -11 -67l-134 -491h-134l-196 700h127l127 -512q8 -33 10 -68h2q2 25 14 68l144 512h119l133 -516q7 -27 10 -63h2q2 25 11 65l125 514h120z" />
    <glyph glyph-name="X" unicode="X" horiz-adv-x="619" 
d="M610 0h-139l-144 257q-6 12 -14 33h-2q-4 -11 -15 -33l-148 -257h-140l230 352l-211 348h142l126 -236q13 -24 22 -47h2q14 31 24 49l132 234h130l-215 -347z" />
    <glyph glyph-name="Y" unicode="Y" horiz-adv-x="577" 
d="M574 700l-229 -446v-254h-116v252l-224 448h132l138 -300q2 -5 15 -41h1q4 16 16 41l144 300h123z" />
    <glyph glyph-name="Z" unicode="Z" horiz-adv-x="587" 
d="M564 649l-384 -551h379v-98h-541v53l385 549h-356v98h517v-51z" />
    <glyph glyph-name="bracketleft" unicode="[" horiz-adv-x="334" 
d="M334 -175h-184v870h184v-70h-102v-730h102v-70z" />
    <glyph glyph-name="bracketright" unicode="]" horiz-adv-x="334" 
d="M334 695v-870h-184v70h100v730h-100v70h184z" />
    <glyph glyph-name="underscore" unicode="_" horiz-adv-x="546" 
d="M554 -133v-63h-562v63h562z" />
    <glyph glyph-name="a" unicode="a" horiz-adv-x="522" 
d="M458 0h-110v78h-2q-52 -90 -152 -90q-74 0 -115.5 40t-41.5 106q0 142 163 165l148 21q0 107 -101 107q-90 0 -162 -61v99q80 47 183 47q190 0 190 -187v-325zM348 246l-105 -15q-49 -6 -73.5 -23.5t-24.5 -61.5q0 -31 22.5 -51.5t61.5 -20.5q51 0 85 36.5t34 91.5v44z
" />
    <glyph glyph-name="b" unicode="b" horiz-adv-x="603" 
d="M189 72h-2v-72h-113v740h113v-328h2q58 100 170 100q95 0 148.5 -67.5t53.5 -179.5q0 -126 -60.5 -201.5t-164.5 -75.5q-97 0 -147 84zM186 271v-62q0 -55 35 -93t89 -38q63 0 98.5 49t35.5 137q0 74 -33.5 115.5t-90.5 41.5q-60 0 -97 -43t-37 -107z" />
    <glyph glyph-name="c" unicode="c" horiz-adv-x="470" 
d="M432 23q-60 -35 -142 -35q-112 0 -180 69.5t-68 180.5q0 124 73 199t197 75q68 0 120 -24v-106q-52 39 -111 39q-72 0 -118 -48.5t-46 -126.5t43.5 -123t115.5 -45q61 0 116 44v-99z" />
    <glyph glyph-name="d" unicode="d" horiz-adv-x="603" 
d="M528 0h-113v85h-2q-55 -97 -168 -97q-93 0 -148 67.5t-55 182.5q0 124 61 199t163 75q101 0 147 -81h2v309h113v-740zM417 229v65q0 53 -35 90t-89 37q-63 0 -99.5 -47t-36.5 -131q0 -76 35 -120.5t94 -44.5q58 0 94.5 43t36.5 108z" />
    <glyph glyph-name="e" unicode="e" horiz-adv-x="531" 
d="M497 219h-341q2 -69 43 -106.5t112 -37.5q80 0 147 48v-92q-68 -43 -181 -43q-110 0 -172.5 68.5t-62.5 191.5q0 117 69 190.5t171 73.5q103 0 159 -66t56 -183v-44zM388 299q-1 61 -29 95t-78 34q-49 0 -83 -35.5t-42 -93.5h232z" />
    <glyph glyph-name="f" unicode="f" horiz-adv-x="345" 
d="M356 648q-23 13 -52 13q-82 0 -82 -93v-68h116v-89h-116v-411h-113v411h-86v89h86v81q0 79 51.5 124.5t129.5 45.5q42 0 66 -9v-94z" />
    <glyph glyph-name="g" unicode="g" horiz-adv-x="603" 
d="M529 40q0 -275 -277 -275q-98 0 -170 32v104q82 -47 155 -47q179 0 179 175v55h-2q-57 -96 -169 -96q-92 0 -147.5 67t-55.5 179q0 127 60 202.5t165 75.5q99 0 147 -81h2v69h113v-460zM417 229v65q0 53 -35 90t-88 37q-64 0 -100.5 -47.5t-36.5 -132.5q0 -74 35 -118
t93 -44t95 42t37 108z" />
    <glyph glyph-name="h" unicode="h" horiz-adv-x="582" 
d="M518 0h-113v273q0 149 -99 149q-50 0 -84 -43t-34 -110v-269h-114v740h114v-323h1q57 95 163 95q166 0 166 -204v-308z" />
    <glyph glyph-name="i" unicode="i" horiz-adv-x="261" 
d="M131 605q-28 0 -48 18t-20 46t20 46.5t48 18.5q29 0 49 -18.5t20 -46.5q0 -26 -20 -45t-49 -19zM187 0h-113v500h113v-500z" />
    <glyph glyph-name="j" unicode="j" horiz-adv-x="261" 
d="M187 21q0 -123 -52 -189.5t-148 -66.5q-35 0 -69 15v97q32 -22 60 -22q96 0 96 169v476h113v-479zM131 605q-27 0 -47 18t-20 46t20 46.5t47 18.5q29 0 49 -18.5t20 -46.5q0 -26 -20 -45t-49 -19z" />
    <glyph glyph-name="k" unicode="k" horiz-adv-x="525" 
d="M527 0h-143l-195 240h-1v-240h-114v740h114v-469h1l184 229h136l-206 -241z" />
    <glyph glyph-name="l" unicode="l" horiz-adv-x="261" 
d="M188 0h-114v740h114v-740z" />
    <glyph glyph-name="m" unicode="m" horiz-adv-x="886" 
d="M821 0h-113v272q0 79 -22 114t-75 35q-45 0 -76 -44t-31 -106v-271h-113v282q0 139 -99 139q-46 0 -75.5 -42t-29.5 -108v-271h-113v500h113v-79h2q54 91 158 91q51 0 90 -28.5t53 -75.5q56 104 166 104q165 0 165 -204v-308z" />
    <glyph glyph-name="n" unicode="n" horiz-adv-x="583" 
d="M519 0h-113v282q0 140 -99 140q-52 0 -85.5 -39t-33.5 -98v-285h-114v500h114v-83h1q57 95 163 95q81 0 124 -53t43 -153v-306z" />
    <glyph glyph-name="o" unicode="o" horiz-adv-x="597" 
d="M295 -12q-115 0 -184 70t-69 186q0 126 72 197t194 71q117 0 182.5 -69t65.5 -191q0 -120 -70.5 -192t-190.5 -72zM301 421q-67 0 -105.5 -46t-38.5 -128q0 -79 39 -124t105 -45q67 0 102.5 44.5t35.5 126.5q0 83 -35.5 127.5t-102.5 44.5z" />
    <glyph glyph-name="p" unicode="p" horiz-adv-x="603" 
d="M189 74h-2v-304h-113v730h113v-88h2q58 100 170 100q95 0 148.5 -67t53.5 -180q0 -125 -60.5 -200t-164.5 -75q-95 0 -147 84zM186 271v-62q0 -55 35 -93t89 -38q63 0 98.5 49t35.5 137q0 74 -33.5 115.5t-90.5 41.5q-60 0 -97 -43t-37 -107z" />
    <glyph glyph-name="q" unicode="q" horiz-adv-x="603" 
d="M528 -230h-113v316h-2q-51 -98 -167 -98q-93 0 -148.5 67.5t-55.5 182.5q0 125 61 199.5t165 74.5q100 0 145 -81h2v69h113v-730zM417 228v64q0 54 -35 91.5t-89 37.5q-63 0 -99.5 -47t-36.5 -133q0 -76 35.5 -119.5t90.5 -43.5q61 0 97.5 42.5t36.5 107.5z" />
    <glyph glyph-name="r" unicode="r" horiz-adv-x="370" 
d="M364 392q-21 16 -59 16q-51 0 -84.5 -45.5t-33.5 -123.5v-239h-113v500h113v-103h2q17 53 51 82.5t77 29.5q31 0 47 -9v-108z" />
    <glyph glyph-name="s" unicode="s" horiz-adv-x="431" 
d="M42 16v105q64 -49 141 -49q102 0 102 61q0 17 -8.5 29t-23.5 21t-35.5 16.5t-45.5 16.5q-30 13 -55 26.5t-41 31t-24.5 39t-8.5 51.5q0 36 17 63.5t46 46.5t65.5 28.5t75.5 9.5q69 0 124 -21v-99q-53 36 -121 36q-21 0 -38.5 -4.5t-30 -12.5t-19 -19t-6.5 -24
q0 -16 6.5 -27t20 -19.5t32.5 -16t43 -15.5q33 -13 58.5 -26.5t43.5 -31t27.5 -40.5t9.5 -54q0 -38 -17.5 -66.5t-46.5 -47t-67.5 -27.5t-80.5 -9q-82 0 -143 28z" />
    <glyph glyph-name="t" unicode="t" horiz-adv-x="361" 
d="M337 5q-33 -16 -87 -16q-146 0 -146 139v283h-83v89h83v116l114 32v-148h119v-89h-119v-250q0 -44 16 -63t54 -19q28 0 49 16v-90z" />
    <glyph glyph-name="u" unicode="u" horiz-adv-x="583" 
d="M510 0h-114v79h-1q-50 -91 -154 -91q-177 0 -177 213v299h113v-287q0 -135 104 -135q51 0 83 37t32 97v288h114v-500z" />
    <glyph glyph-name="v" unicode="v" horiz-adv-x="507" 
d="M504 500l-193 -500h-123l-184 500h123l111 -350q13 -38 16 -67h1q5 36 14 65l116 352h119z" />
    <glyph glyph-name="w" unicode="w" horiz-adv-x="756" 
d="M746 500l-147 -500h-119l-91 339q-5 19 -7 44h-2q-1 -17 -8 -43l-99 -340h-116l-147 500h117l91 -360q4 -16 6 -43h3q2 20 8 44l101 359h106l90 -362q5 -17 7 -43h3q1 18 7 43l89 362h108z" />
    <glyph glyph-name="x" unicode="x" horiz-adv-x="501" 
d="M492 500l-167 -253l165 -247h-132l-87 155q-9 14 -20 36h-2q-2 -4 -20 -36l-90 -155h-131l170 245l-161 255h132l86 -163q10 -18 19 -37h2l112 200h124z" />
    <glyph glyph-name="y" unicode="y" horiz-adv-x="508" 
d="M507 500l-226 -580q-70 -155 -197 -155q-36 0 -60 6v94q27 -9 49 -9q64 0 95 63l34 82l-199 499h125l120 -363q2 -7 8 -36h3q2 11 9 35l125 364h114z" />
    <glyph glyph-name="z" unicode="z" horiz-adv-x="464" 
d="M443 453l-270 -365h269v-88h-428v42l276 370h-249v88h402v-47z" />
    <glyph glyph-name="braceleft" unicode="{" horiz-adv-x="417" 
d="M226 271q21 -10 37 -25t26.5 -28t17.5 -38.5t10.5 -38.5t5 -47.5t1.5 -47.5v-54q0 -57 17 -76t76 -19v-73h-25q-41 0 -69 11.5t-43 28.5t-23 50t-9.5 61.5t-1.5 78.5q0 26 -0.5 39t-3 38.5t-8.5 39.5t-16 30t-27.5 23.5t-40.5 7.5v77q23 0 40.5 7.5t27.5 23.5t16 30.5
t8.5 39.5t3 38t0.5 39q0 50 1.5 78.5t9.5 62t23 50t43 28t69 11.5h25v-73q-59 0 -76 -19t-17 -76v-54t-1.5 -47t-5 -47.5t-10.5 -38.5t-17.5 -38t-26.5 -28t-37 -25z" />
    <glyph glyph-name="braceright" unicode="}" horiz-adv-x="417" 
d="M341 271q-24 12 -41 27t-27.5 37t-16.5 39.5t-8.5 50t-3 51.5t-0.5 59v14q0 56 -17.5 75.5t-76.5 19.5v73h25q41 0 69 -11.5t43 -28t23 -50t9.5 -62t1.5 -78.5q0 -26 0.5 -39t3 -38t8.5 -39.5t16 -30.5t27.5 -23.5t40.5 -7.5v-77q-23 0 -40.5 -7.5t-27.5 -23.5t-16 -30
t-8.5 -39.5t-3 -38.5t-0.5 -39q0 -50 -1.5 -78.5t-9.5 -61.5t-23 -50t-43 -28.5t-69 -11.5h-25v73q59 0 76.5 19.5t17.5 75.5q0 127 11 171q19 76 86 108z" />
    <glyph glyph-name="uni00A0" unicode="&#xa0;" horiz-adv-x="187" 
 />
    <glyph glyph-name="guillemotleft" unicode="&#xab;" horiz-adv-x="479" 
d="M222 205q0 -105 75 -216q6 -9 1.5 -12.5t-13.5 0.5q-55 23 -95 90.5t-40 137.5t40 137t95 90q9 4 13.5 1t-1.5 -12q-75 -111 -75 -216zM400 205q0 -107 75 -216q6 -9 1 -12.5t-14 0.5q-54 23 -94.5 90.5t-40.5 137.5t40.5 137t94.5 90q10 4 14.5 1t-1.5 -12
q-75 -109 -75 -216z" />
    <glyph glyph-name="periodcentered" unicode="&#xb7;" horiz-adv-x="307" 
d="M125 375v125h125v-125h-125z" />
    <glyph glyph-name="guillemotright" unicode="&#xbb;" horiz-adv-x="479" 
d="M406 205q0 107 -75 216q-6 9 -1 12t14 -1q54 -23 94.5 -90t40.5 -137t-40.5 -137.5t-94.5 -90.5q-10 -4 -14.5 -0.5t1.5 12.5q75 109 75 216zM229 205q0 105 -75 216q-6 9 -1.5 12t13.5 -1q55 -23 95 -90t40 -137t-40 -137.5t-95 -90.5q-9 -4 -13.5 -0.5t1.5 12.5
q75 111 75 216z" />
    <glyph glyph-name="multiply" unicode="&#xd7;" horiz-adv-x="549" 
d="M152 334l64 65l135 -133l129 130l66 -65l-130 -131l133 -133l-67 -65l-131 133l-136 -136l-65 65l136 136z" />
    <glyph glyph-name="divide" unicode="&#xf7;" horiz-adv-x="555" 
d="M297 0v111h110v-111h-110zM150 180v92h405v-92h-405zM297 341v111h110v-111h-110z" />
    <glyph glyph-name="uni060C" unicode="&#x60c;" horiz-adv-x="367" 
d="M157 62q0 108 11 144q22 71 101 78v-35q-22 -4 -36.5 -15.5t-21 -29t-8.5 -34t-2 -39.5q63 12 91 -31q23 -36 3 -70q-18 -30 -63 -30q-75 0 -75 62z" />
    <glyph glyph-name="uni060D" unicode="&#x60d;" horiz-adv-x="179" 
d="M175 189q13 23 42 21q23 -1 23 -20q0 -7 -4 -15q-78 -153 -176 -280q-31 -40 -51 -19t1 53q124 186 165 260z" />
    <glyph glyph-name="uni061B" unicode="&#x61b;" horiz-adv-x="305" 
d="M157 67q0 29 20.5 49t47.5 20q28 0 48.5 -20t20.5 -49q0 -27 -20.5 -47t-48.5 -20q-27 0 -47.5 20t-20.5 47zM157 289q0 107 11 144q22 70 101 77v-35q-42 -9 -55 -39t-13 -79q63 12 92 -33q22 -35 2 -69q-18 -30 -63 -30q-75 0 -75 64z" />
    <glyph glyph-name="uni061F" unicode="&#x61f;" horiz-adv-x="589" 
d="M524 487l2 -55h-97q0 123 -88 124q-34 1 -57.5 -20.5t-23.5 -53.5q0 -28 12.5 -51t31 -40t37 -35t33 -43.5t16.5 -56.5l6 -69h-95q-2 64 -17 93q-16 28 -49.5 60.5t-54.5 63.5t-23 75q-1 74 54.5 120t124.5 46q75 0 128.5 -43.5t59.5 -114.5zM285 59q0 25 17 42.5
t42 17.5t42.5 -17.5t17.5 -42.5t-17.5 -42t-42.5 -17t-42 17t-17 42z" />
    <glyph glyph-name="uni0621" unicode="&#x621;" horiz-adv-x="341" 
 />
    <glyph glyph-name="uni0622" unicode="&#x622;" horiz-adv-x="208" 
 />
    <glyph glyph-name="uni0623" unicode="&#x623;" horiz-adv-x="208" 
 />
    <glyph glyph-name="uni0624" unicode="&#x624;" horiz-adv-x="225" 
 />
    <glyph glyph-name="uni0625" unicode="&#x625;" horiz-adv-x="225" 
 />
    <glyph glyph-name="uni0626" unicode="&#x626;" horiz-adv-x="225" 
 />
    <glyph glyph-name="uni0627" unicode="&#x627;" horiz-adv-x="225" 
 />
    <glyph glyph-name="uni0628" unicode="&#x628;" horiz-adv-x="225" 
 />
    <glyph glyph-name="uni0629" unicode="&#x629;" horiz-adv-x="225" 
 />
    <glyph glyph-name="uni062A" unicode="&#x62a;" horiz-adv-x="225" 
 />
    <glyph glyph-name="uni062B" unicode="&#x62b;" horiz-adv-x="225" 
 />
    <glyph glyph-name="uni062C" unicode="&#x62c;" horiz-adv-x="225" 
 />
    <glyph glyph-name="uni062D" unicode="&#x62d;" horiz-adv-x="225" 
 />
    <glyph glyph-name="uni062E" unicode="&#x62e;" horiz-adv-x="225" 
 />
    <glyph glyph-name="uni062F" unicode="&#x62f;" horiz-adv-x="225" 
 />
    <glyph glyph-name="uni0630" unicode="&#x630;" horiz-adv-x="225" 
 />
    <glyph glyph-name="uni0631" unicode="&#x631;" horiz-adv-x="225" 
 />
    <glyph glyph-name="uni0632" unicode="&#x632;" horiz-adv-x="208" 
 />
    <glyph glyph-name="uni0633" unicode="&#x633;" horiz-adv-x="225" 
 />
    <glyph glyph-name="uni0634" unicode="&#x634;" horiz-adv-x="225" 
 />
    <glyph glyph-name="uni0635" unicode="&#x635;" horiz-adv-x="225" 
 />
    <glyph glyph-name="uni0636" unicode="&#x636;" horiz-adv-x="225" 
 />
    <glyph glyph-name="uni0637" unicode="&#x637;" horiz-adv-x="225" 
 />
    <glyph glyph-name="uni0638" unicode="&#x638;" horiz-adv-x="225" 
 />
    <glyph glyph-name="uni0639" unicode="&#x639;" horiz-adv-x="225" 
 />
    <glyph glyph-name="uni063A" unicode="&#x63a;" horiz-adv-x="225" 
 />
    <glyph glyph-name="uni0640" unicode="&#x640;" horiz-adv-x="125" 
d="M125 0h-125q-30 0 -30 9v80q0 8 30 8h125v-97z" />
    <glyph glyph-name="uni0641" unicode="&#x641;" horiz-adv-x="225" 
 />
    <glyph glyph-name="uni0642" unicode="&#x642;" horiz-adv-x="225" 
 />
    <glyph glyph-name="uni0643" unicode="&#x643;" horiz-adv-x="208" 
 />
    <glyph glyph-name="uni0644" unicode="&#x644;" horiz-adv-x="208" 
 />
    <glyph glyph-name="uni0645" unicode="&#x645;" horiz-adv-x="225" 
 />
    <glyph glyph-name="uni0646" unicode="&#x646;" horiz-adv-x="225" 
 />
    <glyph glyph-name="uni0647" unicode="&#x647;" horiz-adv-x="225" 
 />
    <glyph glyph-name="uni0648" unicode="&#x648;" horiz-adv-x="225" 
 />
    <glyph glyph-name="uni0649" unicode="&#x649;" horiz-adv-x="225" 
 />
    <glyph glyph-name="uni064A" unicode="&#x64a;" horiz-adv-x="225" 
 />
    <glyph glyph-name="uni064B" unicode="&#x64b;" 
d="M140 269l14 -45l-285 -72l-15 43zM140 175l14 -45l-285 -71l-15 42z" />
    <glyph glyph-name="uni064C" unicode="&#x64c;" 
d="M130 196q0 17 -13 28.5t-30 11.5q-27 0 -38.5 -20t0 -40.5t38.5 -20.5q16 0 29.5 12.5t13.5 28.5zM90 107l-196 -46l-10 41q21 8 33.5 24.5t12.5 30.5q0 20 -16 20q-15 0 -30 -13l-20 28q27 34 65 34q36 0 36 -46q0 -35 -18 -60l72 20q-40 44 -17.5 94.5t80.5 50.5
q40 0 66.5 -23t32 -53t-17.5 -60t-73 -42z" />
    <glyph glyph-name="uni064D" unicode="&#x64d;" 
d="M141 -59l14 -46l-285 -71l-14 42zM141 -154l14 -46l-285 -71l-14 45z" />
    <glyph glyph-name="uni064E" unicode="&#x64e;" 
d="M137 175l14 -45l-285 -71l-15 42z" />
    <glyph glyph-name="uni064F" unicode="&#x64f;" 
d="M49 107l-197 -46l-10 41l135 38q-39 44 -16.5 94.5t79.5 50.5q40 0 67 -23t32 -53t-17.5 -60t-72.5 -42zM87 196q0 17 -12.5 28.5t-28.5 11.5q-28 0 -39.5 -20t0 -40.5t39.5 -20.5q15 0 28 12.5t13 28.5z" />
    <glyph glyph-name="uni0650" unicode="&#x650;" 
d="M135 -25l12 -46l-285 -70l-13 42z" />
    <glyph glyph-name="uni0651" unicode="&#x651;" 
d="M7 129q-14 -42 -49 -63t-66.5 -8t-34.5 58q-4 51 28 104l32 -19q-37 -87 13 -87q28 0 38.5 23t10.5 74l46 25q0 -10 6 -55q7 -19 20 -30t28 -11q33 0 15 53q-8 23 -19 38l35 26q24 -32 32 -71t-9 -69.5t-61 -30.5q-34 0 -65 43z" />
    <glyph glyph-name="uni0652" unicode="&#x652;" 
d="M-55 161q0 -23 16.5 -39t38.5 -16t38.5 16t16.5 39t-16.5 39t-38.5 16t-38.5 -16t-16.5 -39zM-103 161q0 42 30.5 72.5t72.5 30.5t72 -30.5t30 -72.5q0 -41 -30 -71.5t-72 -30.5t-72.5 30.5t-30.5 71.5z" />
    <glyph glyph-name="uni0653" unicode="&#x653;" 
d="M0 59q-45 15 -86.5 14t-71.5 -31q-9 -6 -12.5 -2.5t-2.5 12.5q7 36 35.5 61.5t64.5 25.5q23 0 79 -14q38 -10 59.5 -14t53.5 2t52 29q2 2 4.5 3.5t5 2t4 -1t1.5 -5.5q0 -33 -31 -64q-26 -27 -71.5 -28.5t-83.5 10.5z" />
    <glyph glyph-name="uni0656" unicode="&#x656;" 
d="M-34 -59h69l-18 -182h-30z" />
    <glyph glyph-name="uni0660" unicode="&#x660;" horiz-adv-x="496" 
d="M249 260q0 -37 26 -62.5t62 -25.5q37 0 62.5 25.5t25.5 62.5t-25.5 62t-62.5 25q-36 0 -62 -25.5t-26 -61.5zM177 260q0 65 47 112t113 47t112.5 -47t46.5 -112q0 -66 -46.5 -112.5t-112.5 -46.5t-113 46.5t-47 112.5z" />
    <glyph glyph-name="uni0661" unicode="&#x661;" horiz-adv-x="287" 
d="M287 274v-292h-91v292q0 77 -11 163t-35 134l90 31q47 -141 47 -328z" />
    <glyph glyph-name="uni0662" unicode="&#x662;" horiz-adv-x="519" 
d="M287 274v-292h-91v292q0 77 -11 163t-35 134l90 31q26 -78 39 -157q12 -59 70 -59q32 0 54 22t19 52l-16 114l88 30l23 -152q7 -40 -21.5 -86t-80.5 -57q-62 -17 -128 25v-15.5v-23v-21.5z" />
    <glyph glyph-name="uni0663" unicode="&#x663;" horiz-adv-x="697" 
d="M286 334q0 -9 0.5 -29t0.5 -31v-292h-91v292q0 77 -11 163t-35 134l89 30l1 1q29 -93 39 -162q12 -54 68 -54q31 0 45 21t10 53l-15 114l88 30l24 -152q2 -23 -3 -40q25 -28 63 -28q20 0 31.5 13t14 26t4.5 37l-18 114l90 28q16 -135 16 -148q0 -65 -35.5 -104t-84.5 -39
q-58 0 -102 50q-27 -42 -74 -52q-53 -14 -115 25z" />
    <glyph glyph-name="uni0664" unicode="&#x664;" horiz-adv-x="500" 
d="M500 80v-95h-209q-71 0 -106 32t-35 88q0 54 34.5 103t104.5 103q-46 15 -69.5 53.5t-23.5 87.5q0 50 23.5 86t60 51t82 17t89.5 -16l-27 -86q-19 8 -43 11t-47 0t-38.5 -17t-15.5 -38q0 -40 30.5 -59t67 -18t66.5 13l11 -85q-80 -14 -150.5 -77.5t-70.5 -106.5
q0 -47 87 -47h179z" />
    <glyph glyph-name="uni0665" unicode="&#x665;" horiz-adv-x="612" 
d="M612 194q0 -84 -61.5 -130.5t-170.5 -46.5q-111 0 -170.5 50.5t-59.5 131.5q0 108 124 258l78 97q117 -61 188.5 -155.5t71.5 -204.5zM529 207q0 51 -45.5 116.5t-122.5 106.5l-29 -36q-29 -37 -45.5 -60t-33 -57.5t-16.5 -60.5q0 -45 37.5 -72.5t109.5 -27.5t108.5 25
t36.5 66z" />
    <glyph glyph-name="uni0666" unicode="&#x666;" horiz-adv-x="570" 
d="M150 531l37 83q19 -16 35 -25.5t51.5 -20.5t88.5 -4.5t120 31.5l34 -24q-30 -147 -15.5 -294.5t69.5 -241.5l-83 -54q-58 100 -68 211.5t13 302.5q-195 -66 -282 36z" />
    <glyph glyph-name="uni0667" unicode="&#x667;" horiz-adv-x="677" 
d="M414 147q39 152 78 253t102 204l83 -45q-98 -167 -150.5 -291.5t-75.5 -285.5h-76q-23 161 -75 286.5t-150 290.5l82 45q64 -104 103.5 -205t78.5 -252z" />
    <glyph glyph-name="uni0668" unicode="&#x668;" horiz-adv-x="677" 
d="M414 437q-39 -150 -78.5 -250.5t-103.5 -204.5l-82 44q99 167 150.5 291t74.5 285h76q23 -160 75 -283.5t151 -292.5l-83 -44q-63 104 -102 204t-78 251z" />
    <glyph glyph-name="uni0669" unicode="&#x669;" horiz-adv-x="495" 
d="M495 289v-307h-95v322q-134 -36 -192 3t-58 115q0 75 45.5 127.5t114.5 52.5q50 0 84 -14t54 -37t30.5 -66t13.5 -85.5t3 -110.5zM392 400q0 57 -17 87t-66 30q-33 0 -56 -25t-23 -57q0 -42 30 -57t67 -6.5t65 28.5z" />
    <glyph glyph-name="uni066A" unicode="&#x66a;" horiz-adv-x="934" 
d="M666 595h105l-379 -689h-101zM225 437q0 -38 27 -65t65 -27q39 0 66 27t27 65q0 39 -27 66t-66 27q-38 0 -65 -27t-27 -66zM150 437q0 70 49 119t118 49q70 0 119 -49t49 -119q0 -69 -49 -118t-119 -49q-69 0 -118 49t-49 118zM674 89q0 -39 27 -66t65 -27t65.5 27
t27.5 66q0 38 -27.5 65t-65.5 27t-65 -27t-27 -65zM599 89q0 69 49 118t118 49q70 0 119 -49t49 -118q0 -70 -49 -119t-119 -49q-69 0 -118 49t-49 119z" />
    <glyph glyph-name="uni066B" unicode="&#x66b;" horiz-adv-x="305" 
d="M304 109q0 -108 -11 -144q-22 -71 -102 -78v35q30 6 46 25.5t19.5 40t3.5 52.5q-63 -12 -91 31q-23 36 -3 70q18 30 63 30q75 0 75 -62z" />
    <glyph glyph-name="uni066C" unicode="&#x66c;" horiz-adv-x="305" 
d="M157 62q0 108 11 144q22 71 101 78v-35q-22 -4 -36.5 -15.5t-21 -29t-8.5 -34t-2 -39.5q63 12 91 -31q23 -36 3 -70q-18 -30 -63 -30q-75 0 -75 62z" />
    <glyph glyph-name="uni066D" unicode="&#x66d;" horiz-adv-x="480" 
d="M466 414l14 -24l-138 -80l-13 25zM329 494v-159h-27v159h27zM342 310l138 -80l-13 -24l-138 79zM164 414l138 -79l-15 -28l-137 80zM329 285v-160h-27v160h27zM287 307l15 -22l-136 -80l-16 22z" />
    <glyph glyph-name="uni066E" unicode="&#x66e;" horiz-adv-x="857" 
 />
    <glyph glyph-name="uni066F" unicode="&#x66f;" horiz-adv-x="444" 
 />
    <glyph glyph-name="uni0670" unicode="&#x670;" 
d="M-34 241h68l-18 -182h-30z" />
    <glyph glyph-name="uni0671" unicode="&#x671;" horiz-adv-x="225" 
 />
    <glyph glyph-name="uni067E" unicode="&#x67e;" horiz-adv-x="225" 
 />
    <glyph glyph-name="uni0686" unicode="&#x686;" horiz-adv-x="225" 
 />
    <glyph glyph-name="uni0695" unicode="&#x695;" horiz-adv-x="857" 
 />
    <glyph glyph-name="uni0698" unicode="&#x698;" horiz-adv-x="208" 
 />
    <glyph glyph-name="uni06A0" unicode="&#x6a0;" horiz-adv-x="574" 
 />
    <glyph glyph-name="uni06A1" unicode="&#x6a1;" horiz-adv-x="687" 
 />
    <glyph glyph-name="uni06A4" unicode="&#x6a4;" horiz-adv-x="574" 
 />
    <glyph glyph-name="uni06A9" unicode="&#x6a9;" horiz-adv-x="225" 
 />
    <glyph glyph-name="uni06AC" unicode="&#x6ac;" horiz-adv-x="444" 
 />
    <glyph glyph-name="uni06AF" unicode="&#x6af;" horiz-adv-x="225" 
 />
    <glyph glyph-name="uni06B5" unicode="&#x6b5;" horiz-adv-x="136" 
 />
    <glyph glyph-name="uni06BA" unicode="&#x6ba;" horiz-adv-x="219" 
 />
    <glyph glyph-name="uni06BD" unicode="&#x6bd;" horiz-adv-x="687" 
 />
    <glyph glyph-name="uni06C0" unicode="&#x6c0;" horiz-adv-x="225" 
 />
    <glyph glyph-name="uni06C6" unicode="&#x6c6;" horiz-adv-x="365" 
 />
    <glyph glyph-name="uni06CC" unicode="&#x6cc;" horiz-adv-x="225" 
 />
    <glyph glyph-name="uni06CE" unicode="&#x6ce;" horiz-adv-x="219" 
 />
    <glyph glyph-name="uni06F0" unicode="&#x6f0;" horiz-adv-x="469" 
d="M221 260q0 -37 26 -62.5t63 -25.5t62 25.5t25 62.5t-25 62t-62 25t-63 -25t-26 -62zM150 260q0 66 47 112.5t113 46.5q65 0 112 -47t47 -112q0 -66 -47 -112.5t-112 -46.5q-67 0 -113.5 46.5t-46.5 112.5z" />
    <glyph glyph-name="uni06F1" unicode="&#x6f1;" horiz-adv-x="287" 
d="M287 274v-292h-91v292q0 77 -11 163t-35 134l90 31q47 -141 47 -328z" />
    <glyph glyph-name="uni06F2" unicode="&#x6f2;" horiz-adv-x="519" 
d="M287 274v-292h-91v292q0 77 -11 163t-35 134l90 31q26 -78 39 -157q12 -59 70 -59q32 0 54 22t19 52l-16 114l88 30l23 -152q7 -40 -21.5 -86t-80.5 -57q-62 -17 -128 25v-15.5v-23v-21.5z" />
    <glyph glyph-name="uni06F3" unicode="&#x6f3;" horiz-adv-x="697" 
d="M286 334q0 -9 0.5 -29t0.5 -31v-292h-91v292q0 77 -11 163t-35 134l89 30l1 1q29 -93 39 -162q12 -54 68 -54q31 0 45 21t10 53l-15 114l88 30l24 -152q2 -23 -3 -40q25 -28 63 -28q20 0 31.5 13t14 26t4.5 37l-18 114l90 28q16 -135 16 -148q0 -65 -35.5 -104t-84.5 -39
q-58 0 -102 50q-27 -42 -74 -52q-53 -14 -115 25z" />
    <glyph glyph-name="uni06F4" unicode="&#x6f4;" horiz-adv-x="647" 
d="M287 274v-292h-91v292q0 77 -11 163t-35 134l90 31q47 -141 47 -328zM287 325l-47 277l41 -187l49 -23q6 101 45 157t126 56q55 0 119 -29l-34 -81q-41 27 -79 27q-36 0 -64.5 -26t-28.5 -62q0 -65 71 -65q44 0 132 43l30 -77q-96 -48 -191 -48q-81 0 -169 38z" />
    <glyph glyph-name="uni06F5" unicode="&#x6f5;" horiz-adv-x="737" 
d="M737 130q0 -57 -32.5 -98t-79 -57t-99.5 -10.5t-92 34.5q-54 -31 -105.5 -37t-91 11.5t-63.5 61t-24 106.5q0 70 39 150t157 214l-37 25l61 74q367 -277 367 -474zM637 149q0 38 -23.5 83t-61.5 86.5t-70 72t-65 56.5q-168 -171 -168 -293q0 -65 48 -85q42 -17 77 11
q42 34 25 104h93q13 -54 -3 -102q45 -30 96.5 -9.5t51.5 76.5z" />
    <glyph glyph-name="uni06F6" unicode="&#x6f6;" horiz-adv-x="537" 
d="M460 401l77 -57q-137 -127 -281 -364l-82 52q76 127 161 232q-83 0 -134 46.5t-51 123.5q0 72 48 122t117 50q60 0 121 -32l-29 -87q-40 24 -78 24q-33 0 -58.5 -23t-25.5 -54q0 -35 24 -56.5t58 -21.5q62 0 133 45z" />
    <glyph glyph-name="uni06F7" unicode="&#x6f7;" horiz-adv-x="677" 
d="M414 147q39 152 78 253t102 204l83 -45q-98 -167 -150.5 -291.5t-75.5 -285.5h-76q-23 161 -75 286.5t-150 290.5l82 45q64 -104 103.5 -205t78.5 -252z" />
    <glyph glyph-name="uni06F8" unicode="&#x6f8;" horiz-adv-x="677" 
d="M414 437q-39 -150 -78.5 -250.5t-103.5 -204.5l-82 44q99 167 150.5 291t74.5 285h76q23 -160 75 -283.5t151 -292.5l-83 -44q-63 104 -102 204t-78 251z" />
    <glyph glyph-name="uni06F9" unicode="&#x6f9;" horiz-adv-x="495" 
d="M495 289v-307h-95v322q-134 -36 -192 3t-58 115q0 75 45.5 127.5t114.5 52.5q50 0 84 -14t54 -37t30.5 -66t13.5 -85.5t3 -110.5zM392 400q0 57 -17 87t-66 30q-33 0 -56 -25t-23 -57q0 -42 30 -57t67 -6.5t65 28.5z" />
    <glyph glyph-name="uni0750" unicode="&#x750;" 
d="M-74 74q0 30 21.5 51t52.5 21q30 0 51 -21t21 -51t-21 -52t-51 -22q-31 0 -52.5 22t-21.5 52z" />
    <glyph glyph-name="uni0751" unicode="&#x751;" 
d="M-146 61q0 27 18 45.5t45 18.5q25 0 43.5 -19t18.5 -45q0 -25 -18 -43t-44 -18q-27 0 -45 17.5t-18 43.5zM24 61q0 26 18 45t44 19t44.5 -19t18.5 -45q0 -25 -18.5 -43t-44.5 -18t-44 17.5t-18 43.5z" />
    <glyph glyph-name="uni0752" unicode="&#x752;" 
d="M-146 61q0 27 18 45.5t45 18.5q25 0 43.5 -19t18.5 -45q0 -25 -18 -43t-44 -18q-27 0 -45 17.5t-18 43.5zM24 61q0 26 18 45t44 19t44.5 -19t18.5 -45q0 -25 -18.5 -43t-44.5 -18t-44 17.5t-18 43.5zM-63 194q0 25 18.5 43.5t44.5 18.5t43.5 -18.5t17.5 -43.5
q0 -26 -17.5 -44.5t-43.5 -18.5t-44.5 18.5t-18.5 44.5z" />
    <glyph glyph-name="uni0753" unicode="&#x753;" 
d="M-74 -73q0 30 21.5 51.5t52.5 21.5q30 0 51 -21.5t21 -51.5t-21 -51.5t-51 -21.5q-31 0 -52.5 21.5t-21.5 51.5z" />
    <glyph glyph-name="uni0754" unicode="&#x754;" 
d="M-146 -77q0 27 18 45.5t45 18.5q25 0 43.5 -19t18.5 -45q0 -25 -18 -43t-44 -18q-27 0 -45 17.5t-18 43.5zM24 -77q0 26 18 45t44 19t44.5 -19t18.5 -45q0 -25 -18.5 -43t-44.5 -18t-44 17.5t-18 43.5z" />
    <glyph glyph-name="uni0755" unicode="&#x755;" 
d="M-63 -194q0 26 18.5 44.5t44.5 18.5t43.5 -18.5t17.5 -44.5t-17.5 -44t-43.5 -18t-44.5 18t-18.5 44zM-143 -61q0 25 18.5 43t44.5 18t44 -18t18 -43q0 -26 -18 -45t-44 -19t-44.5 19t-18.5 45zM17 -61q0 25 18.5 43t45.5 18q25 0 43 -18t18 -43q0 -26 -18 -45t-43 -19
q-27 0 -45.5 19t-18.5 45z" />
    <glyph glyph-name="uni0756" unicode="&#x756;" 
d="M170 92v-81h-191q-34 0 -56.5 -5t-35 -16t-17.5 -19.5t-11 -25.5l-84 30q33 65 69.5 91t104.5 26h221z" />
    <glyph glyph-name="uni0757" unicode="&#x757;" 
d="M-138 10q-12 0 -40 -31q-8 -12 -14 -9t-3 15q9 41 27 68q12 16 37 9q2 0 15 -3t22 -4q116 119 178 119q30 0 50 -18.5t20 -46.5q0 -32 -20 -55t-51.5 -34t-60.5 -15.5t-57 -4.5q-21 0 -53 5t-50 5zM124 84q0 19 -21 32t-41 13q-48 0 -130 -79q8 -1 24 -1q168 0 168 35z
" />
    <glyph glyph-name="uni0758" unicode="&#x758;" 
d="M79 121l16 -39l-169 -83l-17 36l50 24q-43 26 -43 72q0 36 24.5 60.5t58.5 24.5q28 0 51 -16l-15 -35l-2 1q-2 1 -5.5 2t-6.5 3l1 -1q-3 1 -8 2.5t-8.5 2.5t-6.5 1q-19 0 -29.5 -14t-10.5 -33q0 -38 35 -38q25 0 85 30z" />
    <glyph glyph-name="uni0759" unicode="&#x759;" 
d="M92 -95l17 -38l-168 -85l-19 35l49 27q-41 24 -41 72q0 35 24 59.5t58 24.5q26 0 52 -16l-15 -36q-34 10 -37 11q-18 4 -29.5 -11.5t-11.5 -35.5q0 -15 9.5 -26t28.5 -11q30 0 83 30z" />
    <glyph glyph-name="uni075A" unicode="&#x75a;" 
d="M-114 189l28 35q16 -22 48 -75.5t44 -71.5q42 76 103 148l21 -18q-35 -42 -73 -102.5t-57 -104.5q-35 72 -114 189z" />
    <glyph glyph-name="uni075B" unicode="&#x75b;" horiz-adv-x="747" 
d="M-114 -35l28 35q15 -22 47 -74.5t45 -71.5q37 69 103 147l21 -16q-35 -43 -73.5 -104t-56.5 -105q-34 70 -114 189z" />
    <glyph glyph-name="uni075C" unicode="&#x75c;" 
 />
    <glyph glyph-name="uni0760" unicode="&#x760;" 
 />
    <glyph glyph-name="uni0761" unicode="&#x761;" 
 />
    <glyph glyph-name="uni0762" unicode="&#x762;" 
 />
    <glyph glyph-name="uni0763" unicode="&#x763;" 
 />
    <glyph glyph-name="uni0764" unicode="&#x764;" 
 />
    <glyph glyph-name="uni0765" unicode="&#x765;" 
 />
    <glyph glyph-name="uni0766" unicode="&#x766;" 
 />
    <glyph glyph-name="uni0767" unicode="&#x767;" 
 />
    <glyph glyph-name="uni0768" unicode="&#x768;" 
 />
    <glyph glyph-name="uni0769" unicode="&#x769;" 
 />
    <glyph glyph-name="uni076A" unicode="&#x76a;" 
 />
    <glyph glyph-name="uni076B" unicode="&#x76b;" 
 />
    <glyph glyph-name="uni076C" unicode="&#x76c;" 
 />
    <glyph glyph-name="uni076D" unicode="&#x76d;" 
 />
    <glyph glyph-name="uni200C" unicode="&#x200c;" 
 />
    <glyph glyph-name="uni200D" unicode="&#x200d;" 
d="M24 747v-932h-48v932l-90 -91l-34 34l115 112l-115 114l34 33l114 -115l114 115l33 -33l-115 -114l115 -112l-33 -34z" />
    <glyph glyph-name="uni200E" unicode="&#x200e;" 
d="M142 949l147 -145l-147 -143l-32 33l92 87h-178v-966h-48v1014h226l-92 87z" />
    <glyph glyph-name="uni200F" unicode="&#x200f;" 
d="M24 829v-1014h-48v966h-179l92 -87l-33 -33l-145 143l145 145l33 -33l-92 -87h227z" />
    <glyph glyph-name="quoteleft" unicode="&#x2018;" horiz-adv-x="244" 
d="M199 595h45v-101h-94v80q0 117 80 155l22 -35q-51 -22 -53 -99z" />
    <glyph glyph-name="quoteright" unicode="&#x2019;" horiz-adv-x="252" 
d="M204 621h-45v101h93v-80q0 -118 -80 -155l-22 35q51 21 54 99z" />
    <glyph glyph-name="quotedblleft" unicode="&#x201c;" horiz-adv-x="395" 
d="M199 595h45v-101h-94v80q0 117 80 155l22 -35q-51 -22 -53 -99zM350 595h45v-101h-94v80q0 118 80 155l23 -35q-52 -22 -54 -99z" />
    <glyph glyph-name="quotedblright" unicode="&#x201d;" horiz-adv-x="404" 
d="M355 621h-45v101h94v-80q0 -117 -80 -155l-23 35q52 22 54 99zM204 621h-45v101h93v-80q0 -118 -80 -155l-22 35q51 21 54 99z" />
    <glyph glyph-name="bullet" unicode="&#x2022;" horiz-adv-x="500" 
d="M125 186q0 78 54 133.5t132 55.5t133.5 -54.5t55.5 -134.5q0 -76 -55 -131t-134 -55q-76 0 -131 54.5t-55 131.5z" />
    <glyph glyph-name="guilsinglleft" unicode="&#x2039;" horiz-adv-x="376" 
d="M376 481l-130 -225l130 -221h-74l-152 221l152 225h74z" />
    <glyph glyph-name="guilsinglright" unicode="&#x203a;" horiz-adv-x="371" 
d="M150 35l129 224l-129 222h72l149 -220l-149 -226h-72z" />
    <glyph glyph-name="H22073" unicode="&#x25a1;" horiz-adv-x="475" 
d="M125 0v350h350v-350h-350zM187 287v-225h225v225h-225z" />
    <glyph glyph-name="H18543" unicode="&#x25aa;" horiz-adv-x="475" 
d="M125 0v350h350v-350h-350z" />
    <glyph glyph-name="uni25CC" unicode="&#x25cc;" 
 />
    <glyph glyph-name="openbullet" unicode="&#x25e6;" horiz-adv-x="500" 
d="M125 186q0 78 54 133.5t132 55.5t133.5 -54.5t55.5 -134.5q0 -76 -55 -131t-134 -55q-76 0 -131 54.5t-55 131.5zM187 186q0 -51 37 -88t88 -37q52 0 89.5 37t37.5 88q0 53 -37.5 89.5t-89.5 36.5q-51 0 -88 -37t-37 -89z" />
    <glyph glyph-name="_237" horiz-adv-x="136" 
 />
    <glyph glyph-name="_238" horiz-adv-x="136" 
 />
    <glyph glyph-name="_239" 
 />
    <glyph glyph-name="NameAXMarkGroupCOMMAND" 
 />
    <glyph glyph-name="NameKXMarkGroupCOMMAND" 
 />
    <glyph glyph-name="_242" horiz-adv-x="161" 
 />
    <glyph glyph-name="_243" 
 />
    <glyph glyph-name="_244" 
 />
    <glyph glyph-name="_245" 
 />
    <glyph glyph-name="_246" 
 />
    <glyph glyph-name="NameTYEHTypeMARKMarkGroupTMark" 
d="M-103 19l34 61q48 0 76.5 11t28.5 28q0 11 -29 26q-16 9 -25.5 16t-18.5 20.5t-9 30.5q0 33 21.5 56.5t60.5 32.5l53 13l-17 -69l-37 -9q-25 -6 -25 -14q0 -6 10.5 -14.5t23.5 -13.5q14 -7 20 -10.5t16.5 -11.5t15 -17t4.5 -20q0 -33 -17.5 -57t-47.5 -36t-60.5 -17.5
t-63.5 -5.5h-14z" />
    <glyph glyph-name="_248" horiz-adv-x="717" 
 />
    <glyph glyph-name="_249" horiz-adv-x="717" 
 />
    <glyph glyph-name="_250" 
 />
    <glyph glyph-name="_251" 
 />
    <glyph glyph-name="_252" 
 />
    <glyph glyph-name="_253" 
 />
    <glyph glyph-name="_254" horiz-adv-x="1071" 
 />
    <glyph glyph-name="_255" horiz-adv-x="274" 
 />
    <glyph glyph-name="_256" 
 />
    <glyph glyph-name="_257" 
 />
    <glyph glyph-name="_258" horiz-adv-x="170" 
 />
    <glyph glyph-name="_259" horiz-adv-x="170" 
 />
    <glyph glyph-name="_260" 
 />
    <glyph glyph-name="_261" horiz-adv-x="170" 
 />
    <glyph glyph-name="_262" 
 />
    <glyph glyph-name="_263" 
 />
    <glyph glyph-name="_264" 
 />
    <glyph glyph-name="_265" 
 />
    <glyph glyph-name="_266" horiz-adv-x="1071" 
 />
    <glyph glyph-name="_267" horiz-adv-x="274" 
 />
    <glyph glyph-name="_268" 
 />
    <glyph glyph-name="_269" horiz-adv-x="170" 
 />
    <glyph glyph-name="_270" horiz-adv-x="170" 
 />
    <glyph glyph-name="_271" 
 />
    <glyph glyph-name="_272" horiz-adv-x="1071" 
 />
    <glyph glyph-name="_273" horiz-adv-x="274" 
 />
    <glyph glyph-name="_274" 
 />
    <glyph glyph-name="_275" horiz-adv-x="170" 
 />
    <glyph glyph-name="_276" horiz-adv-x="170" 
 />
    <glyph glyph-name="Name_00.hmz.00" horiz-adv-x="450" 
d="M415 201l35 -71l-269 -134l-31 63l69 38q-59 37 -59 110q0 61 38.5 99.5t91.5 38.5q45 0 90 -26l-30 -62q-33 20 -60 20q-26 0 -45.5 -17t-19.5 -40q0 -26 17 -46.5t44 -21.5q37 0 129 49z" />
    <glyph glyph-name="Name_00.alf.00" horiz-adv-x="246" 
d="M246 0h-91v600h91v-600z" />
    <glyph glyph-name="Name_00.alf.01" horiz-adv-x="340" 
d="M307 0q-157 0 -157 156v444h95v-428q0 -44 17.5 -59.5t54.5 -15.5h73v-97h-83z" />
    <glyph glyph-name="Name_00.beh.00" horiz-adv-x="927" 
d="M830 300h97v-146q0 -69 -40 -111.5t-98 -42.5h-503q-67 0 -101.5 40t-34.5 114v146h95v-131q0 -39 16.5 -55.5t54.5 -16.5h453q36 0 48.5 16.5t12.5 55.5v131z" />
    <glyph glyph-name="Name_00.beh.01" horiz-adv-x="1019" 
d="M1009 0q-87 0 -129 35q-36 -35 -91 -35h-503q-67 0 -101.5 40t-34.5 114v146h95v-131q0 -39 16.5 -55.5t54.5 -16.5h453q36 0 48.5 16.5t12.5 55.5v131h97v-136q0 -67 82 -67h60v-97h-60z" />
    <glyph glyph-name="Name_01.beh.01" horiz-adv-x="300" 
d="M247 0q-38 0 -57.5 7.5t-38.5 28.5q-18 -21 -39 -28.5t-59 -7.5h-103v97h92q59 0 59 72v131h98v-131q0 -72 60 -72h91v-97h-103z" />
    <glyph glyph-name="Name_01.beh.00" horiz-adv-x="272" 
d="M-50 0v97h153q44 0 57.5 18t13.5 54v131h98v-146q0 -72 -35.5 -113t-104.5 -41h-182z" />
    <glyph glyph-name="Name_00.him.00" horiz-adv-x="614" 
d="M649 -366l10 -93h-262q-94 0 -158 21t-96.5 60t-45 82t-12.5 100q0 100 46.5 169.5t142.5 123.5l237 134q-4 24 -32.5 40t-78.5 16h-203l-11 93h230q198 0 199 -196l-320 -179q-59 -34 -91.5 -83t-32.5 -100q0 -188 221 -188h257z" />
    <glyph glyph-name="Name_00.him.01" horiz-adv-x="750" 
d="M641 0q-133 0 -156 111l-190 -106q-59 -34 -91.5 -83t-32.5 -100q0 -188 221 -188h257l10 -93h-262q-94 0 -158 21t-96.5 60t-45 82t-12.5 100q0 100 46.5 169.5t142.5 123.5l237 134q-4 24 -32.5 40t-78.5 16h-203l-11 93h230q198 0 199 -196l-89 -50q15 -22 40.5 -29.5
t74.5 -7.5h159v-97h-159z" />
    <glyph glyph-name="Name_01.him.01" horiz-adv-x="628" 
d="M547 0q-62 0 -98.5 25.5t-50.5 84.5l-132 -75q-62 -35 -146 -35h-170v97h182q53 0 113 33l178 101q-19 56 -85 56h-226l-12 93h235q192 0 193 -196l-88 -50q15 -22 38 -29.5t69 -7.5h131v-97h-131z" />
    <glyph glyph-name="Name_01.him.00" horiz-adv-x="528" 
d="M-50 0v97h50l132 -1q51 0 113 34l178 101q-19 56 -85 56h-226l-12 93h235q192 0 193 -196l-262 -149q-62 -35 -146 -35h-170z" />
    <glyph glyph-name="Name_00.dal.00" horiz-adv-x="575" 
d="M434 0h-297l-12 96h311q22 0 33.5 10t11.5 25q0 19 -16 36l-214 227l64 65l212 -227q48 -53 48 -110q0 -52 -37.5 -87t-103.5 -35z" />
    <glyph glyph-name="Name_00.dal.01" horiz-adv-x="711" 
d="M690 0q-47 0 -75 15.5t-56 48.5q-34 -64 -125 -64h-297l-12 97h311q22 0 33.5 9.5t11.5 24.5q0 19 -16 36l-214 227l64 65l285 -304q3 -3 12 -13t11.5 -13t10.5 -10.5t13 -9.5t14 -6t18 -5t21 -1h61v-97h-71z" />
    <glyph glyph-name="Name_00.reh.00" horiz-adv-x="300" 
d="M26 -143q86 0 130 36t44 101v305h100v-282q0 -113 -65 -186t-174 -72l-77 1l-18 97h60z" />
    <glyph glyph-name="Name_00.reh.01" horiz-adv-x="400" 
d="M379 0q-48 0 -79 42v-25q0 -113 -65 -186t-174 -72l-77 1l-18 97h60q86 0 130 36t44 101v306h100v-158q12 -45 79 -45h71v-97h-71z" />
    <glyph glyph-name="Name_00.sin.00" horiz-adv-x="1260" 
d="M1260 300v-138q0 -78 -41 -120t-118 -42q-70 0 -111 61q-40 -61 -134 -61q-49 0 -85 31v-15q0 -99 -61.5 -171.5t-177.5 -72.5h-145q-118 0 -177.5 57.5t-59.5 186.5v198h96v-198q0 -71 39 -108.5t114 -37.5h125q73 0 111.5 37.5t38.5 108.5v284h97v-138q0 -32 22 -48.5
t54 -16.5q31 0 51.5 15.5t20.5 49.5v138h97v-138q0 -32 22.5 -48.5t53.5 -16.5q32 0 52 15.5t20 49.5v138h96z" />
    <glyph glyph-name="Name_00.sin.01" horiz-adv-x="1361" 
d="M1351 0q-75 0 -116 61q-40 -61 -134 -61q-70 0 -110 61q-40 -61 -135 -61q-49 0 -85 31v-15q0 -99 -61.5 -171.5t-177.5 -72.5h-145q-118 0 -177.5 57.5t-59.5 186.5v198h96v-198q0 -71 39.5 -108.5t113.5 -37.5h125q73 0 111.5 37.5t38.5 108.5v282h97v-143
q3 -29 25 -43.5t53 -14.5q30 0 50.5 16t20.5 49v138h96v-138q0 -32 22.5 -48.5t53.5 -16.5q32 0 52 15.5t20 49.5v138h97v-145q3 -29 24.5 -43.5t51.5 -14.5h74v-97h-60z" />
    <glyph glyph-name="Name_01.sin.01" horiz-adv-x="848" 
d="M825 0q-62 0 -104 60q-40 -60 -134 -60q-70 0 -111 61q-40 -61 -134 -61q-71 0 -111 61q-40 -61 -134 -61h-147v97h145q65 0 65 65v138h96v-138q0 -32 23 -48.5t55 -16.5q30 0 50.5 16t20.5 49v138h97v-138q0 -32 22.5 -48.5t54.5 -16.5q30 0 50.5 16t20.5 49v138h97
v-138q0 -32 23 -48.5t55 -16.5h73v-97h-73z" />
    <glyph glyph-name="Name_01.sin.00" horiz-adv-x="741" 
d="M-50 0v97h139q65 0 65 65v138h96v-138q0 -32 23 -48.5t53 -16.5q71 0 71 65v138h98v-138q0 -32 22.5 -48.5t54.5 -16.5q31 0 51.5 15.5t20.5 49.5v138h97v-138q0 -77 -41.5 -119.5t-118.5 -42.5q-71 0 -112 61q-38 -61 -133 -61q-71 0 -111 61q-40 -61 -135 -61h-140z
" />
    <glyph glyph-name="Name_00.sad.00" horiz-adv-x="1292" 
d="M674 16v290h97v-169q11 -37 86 -40q41 102 116.5 187.5t157.5 85.5q80 0 120.5 -54t40.5 -135q0 -88 -44 -134.5t-123 -46.5h-259q-74 0 -95 35v-19q0 -99 -61.5 -171.5t-177.5 -72.5h-145q-118 0 -177.5 57.5t-59.5 186.5v198h96v-198q0 -71 39.5 -108.5t113.5 -37.5
h125q73 0 111.5 37.5t38.5 108.5zM951 97h184q27 0 43 25t16 60q0 44 -17 67t-46 23q-89 0 -180 -175z" />
    <glyph glyph-name="Name_00.sad.01" horiz-adv-x="1392" 
d="M866 0q-74 0 -95 35v-19q0 -99 -61.5 -171.5t-177.5 -72.5h-145q-118 0 -177.5 57.5t-59.5 186.5v198h96v-198q0 -71 39.5 -108.5t113.5 -37.5h125q73 0 111.5 37.5t38.5 108.5v290h97v-169q11 -37 86 -40q41 102 116.5 187.5t157.5 85.5q80 0 120.5 -54t40.5 -135
q0 -44 -15 -84h165v-97h-576zM951 97h184q27 0 43 25t16 60q0 44 -17 67t-46 23q-89 0 -180 -175z" />
    <glyph glyph-name="Name_01.sad.01" horiz-adv-x="866" 
d="M359 0q-121 0 -158 77q-36 -77 -109 -77h-142v97h132q67 0 67 80v120h96v-120q0 -77 92 -80q55 135 121.5 204t138.5 69q80 0 124.5 -52t44.5 -127q0 -60 -12 -94h162v-97h-557zM426 97h184q27 0 43.5 25t16.5 60q0 44 -17.5 67t-47.5 23q-85 0 -179 -175z" />
    <glyph glyph-name="Name_01.sad.00" horiz-adv-x="766" 
d="M-50 0v97h131q66 0 66 80v120h98v-120q0 -77 92 -80q55 135 121.5 204t138.5 69q80 0 124.5 -52t44.5 -127q0 -97 -38 -144t-128 -47h-241q-121 0 -158 77q-36 -77 -106 -77h-145zM426 97h184q27 0 43.5 25t16.5 60q0 44 -17.5 67t-47.5 23q-85 0 -179 -175z" />
    <glyph glyph-name="Name_00.tah.00" horiz-adv-x="652" 
d="M500 0h-331l-19 97h77v512h95v-350q82 111 168 111q81 0 121.5 -60.5t40.5 -139.5q0 -71 -43 -120.5t-109 -49.5zM311 97h184q28 0 44 24.5t16 60.5q0 44 -17.5 67t-47.5 23q-85 0 -179 -175z" />
    <glyph glyph-name="Name_00.tah.01" horiz-adv-x="752" 
d="M169 0l-19 97h77v512h95v-350q82 111 168 111q81 0 121.5 -60.5t40.5 -139.5q0 -37 -13 -73h40h123v-97h-633zM311 97h184q28 0 44 24.5t16 60.5q0 44 -17.5 67t-47.5 23q-85 0 -179 -175z" />
    <glyph glyph-name="Name_01.tah.01" horiz-adv-x="628" 
d="M-50 0v97h151v512h95v-350q82 111 169 111q76 0 118.5 -62t42.5 -138q0 -37 -13 -73h165v-97h-728zM185 97h184q28 0 44 24.5t16 60.5q0 44 -17.5 67t-46.5 23q-86 0 -180 -175z" />
    <glyph glyph-name="Name_01.tah.00" horiz-adv-x="526" 
d="M-50 0v97h150v512h96v-350q83 111 169 111q76 0 118.5 -62t42.5 -138q0 -71 -42.5 -120.5t-109.5 -49.5h-339h-7h-78zM186 97h184q27 0 43 25t16 60q0 44 -17.5 67t-46.5 23q-88 0 -179 -175z" />
    <glyph glyph-name="Name_00.ein.00" horiz-adv-x="629" 
d="M631 -366l14 -93h-261q-126 0 -209 78.5t-83 199.5q0 92 47 165t148 110q-38 55 -38 116q0 70 46 121t114 51q80 0 188 -73l-46 -73q-35 21 -48 28.5t-39.5 17t-48.5 9.5q-35 0 -53 -23.5t-18 -57.5q0 -43 25.5 -78.5t65.5 -35.5h180l14 -96h-293q-66 0 -111 -51.5
t-45 -117.5q0 -85 67.5 -141t167.5 -56h216z" />
    <glyph glyph-name="Name_00.ein.01" horiz-adv-x="708" 
d="M584 0q-98 0 -182 70q-82 -35 -133 -75q-95 -73 -95 -163q0 -81 72.5 -139.5t184.5 -58.5h214l9 -93h-263q-134 0 -216.5 85.5t-82.5 200.5q0 141 117 232q53 40 123 77l-126 124l64 120h202q61 0 98 -33.5t37 -81.5q0 -28 -10 -51t-31 -42.5t-36.5 -30.5t-44.5 -29
q33 -15 106 -15h167v-97h-174zM464 289h-149l105 -112q89 52 89 80q0 14 -13.5 23t-31.5 9z" />
    <glyph glyph-name="Name_01.ein.01" horiz-adv-x="602" 
d="M489 0q-91 0 -176 64q-109 -64 -195 -64h-168v97h152q72 0 136 30q-50 44 -139 133l69 126h199q67 0 101 -36t34 -84q0 -47 -27.5 -81t-76.5 -69q43 -19 90 -19h164v-97h-163zM202 289q91 -95 115 -117q81 51 81 87q0 13 -12 21.5t-32 8.5h-152z" />
    <glyph glyph-name="Name_01.ein.00" horiz-adv-x="471" 
d="M-50 0v97h179q-28 63 -28 117q0 75 43 123.5t117 48.5q101 0 176 -76l-46 -74q-74 58 -125 58q-38 0 -56.5 -27.5t-18.5 -64.5q0 -39 20 -72t55 -33h190l16 -97h-522z" />
    <glyph glyph-name="Name_00.feh.00" horiz-adv-x="927" 
d="M837 167l-123 5q-61 2 -91.5 37t-30.5 98q0 68 45.5 113t116.5 45q73 0 123 -57.5t50 -131.5v-82q0 -83 -37.5 -138.5t-108.5 -55.5h-499q-72 0 -102 38t-30 116v143h96v-128q0 -42 14.5 -57t54.5 -15h451q42 0 56.5 17.5t14.5 52.5zM734 259l102 -4q-1 44 -26.5 78
t-65.5 34q-72 0 -72 -65q0 -41 62 -43z" />
    <glyph glyph-name="Name_00.feh.01" horiz-adv-x="1029" 
d="M945 0q-128 0 -165 17q-25 -17 -131 -17h-370q-55 0 -92 43.5t-37 110.5v143h97v-128q0 -72 70 -72h329q-52 52 -52 118q0 69 53 120t118 51q70 0 117 -51t47 -120q0 -75 -47 -118h197v-97h-134zM835 215q0 29 -22.5 52t-51.5 23q-32 0 -54.5 -20t-22.5 -55q0 -64 77 -90
q32 9 53 32.5t21 57.5z" />
    <glyph glyph-name="Name_01.feh.01" horiz-adv-x="534" 
d="M-50 0v97h197q-46 51 -46 118q0 69 52.5 117t118.5 48q70 0 116 -48t46 -117q0 -66 -42 -118h192v-97h-127q-123 0 -186 17q-60 -17 -117 -17h-204zM189 215q0 -60 77 -93q76 34 76 93q0 29 -23 52t-52 23q-33 0 -55.5 -20t-22.5 -55z" />
    <glyph glyph-name="Name_01.feh.00" horiz-adv-x="436" 
d="M-50 0v97h325q41 0 56 16.5t14 45.5l-123 3q-60 3 -90.5 42t-30.5 103q0 68 45 113t116 45q81 0 127.5 -60t46.5 -140v-71q0 -83 -37.5 -138.5t-108.5 -55.5h-340zM242 259l103 -4q-1 44 -26.5 78t-66.5 34q-71 0 -71 -65q0 -41 61 -43z" />
    <glyph glyph-name="Name_00.ghe.00" horiz-adv-x="767" 
d="M671 112q0 42 -26.5 76t-67.5 34q-29 0 -48 -14.5t-19 -36.5q0 -39 25 -50q24 -9 136 -9zM767 127v-150q0 -30 -11.5 -62.5t-36.5 -66t-74 -55t-114 -21.5h-145q-118 0 -177 56.5t-59 186.5v197h95v-197q0 -71 39 -108.5t113 -37.5h125q70 0 109.5 42.5t39.5 104.5
q-130 0 -169 13q-76 24 -76 136q0 69 44.5 109.5t110.5 40.5q82 0 134 -56t52 -132z" />
    <glyph glyph-name="Name_00.ghe.01" horiz-adv-x="869" 
d="M919 0h-150v-39q0 -30 -12 -62.5t-37 -66t-74 -55.5t-114 -22h-145q-118 0 -177.5 57t-59.5 187v197h96v-197q0 -71 39.5 -109.5t113.5 -38.5h125q66 0 105 40t43 100v9h-10q-118 0 -158 11q-77 27 -77 138q0 69 45 108.5t110 39.5q83 0 135 -55.5t52 -131.5v-13h150v-97
zM536 105q20 -8 131 -8h5v7q-2 40 -28.5 70.5t-64.5 30.5q-30 0 -49 -14.5t-19 -36.5q0 -40 25 -49z" />
    <glyph glyph-name="Name_00.kafarab.00" horiz-adv-x="917" 
d="M150 297h95v-128q0 -39 16.5 -55.5t54.5 -16.5h458q48 0 48 42v481h95v-490q0 -61 -38.5 -95.5t-103.5 -34.5h-489q-67 0 -101.5 40t-34.5 114v143zM591 380l19 -38l-160 -81l-20 38l50 25q-39 17 -39 66q0 33 21.5 56t54.5 23q24 0 48 -12l-11 -36q-22 10 -37 10
q-14 0 -27.5 -12.5t-13.5 -27.5q0 -17 11 -27t27 -12q25 -1 77 28z" />
    <glyph glyph-name="Name_00.kafarab.01" horiz-adv-x="1052" 
d="M1102 0h-75q-72 0 -125 66q-24 -66 -117 -66h-499q-67 0 -101.5 40t-34.5 114v143h95v-128q0 -39 16.5 -55.5t54.5 -16.5h466q45 0 45 38v494h95v-445q0 -38 32.5 -62.5t74.5 -24.5h73v-97zM591 380l19 -38l-160 -81l-20 38l50 25q-39 17 -39 66q0 33 21.5 56t54.5 23
q24 0 48 -12l-11 -36q-22 10 -37 10q-14 0 -27.5 -12.5t-13.5 -27.5q0 -17 11 -27t27 -12q25 -1 77 28z" />
    <glyph glyph-name="Name_00.kaf.00" horiz-adv-x="922" 
d="M150 154v143h95v-128q0 -39 16.5 -55.5t54.5 -16.5h458q22 0 35 11.5t13 28.5q0 22 -16 38l-247 259l-14 107l347 125l12 -95l-249 -96l221 -236q46 -50 46 -107q0 -55 -40.5 -93.5t-106.5 -38.5h-489q-67 0 -101.5 40t-34.5 114z" />
    <glyph glyph-name="Name_00.kaf.01" horiz-adv-x="1055" 
d="M1105 0h-61q-82 0 -140 67q-41 -67 -129 -67h-489q-67 0 -101.5 40t-34.5 114v145h95v-130q0 -39 16.5 -55.5t54.5 -16.5h458q22 0 35 11.5t13 28.5q0 22 -16 38l-247 259l-14 107l347 125l12 -95l-249 -96l322 -344q36 -34 67 -34h61v-97z" />
    <glyph glyph-name="Name_01.kaf.01" horiz-adv-x="510" 
d="M560 0h-61q-83 0 -139 67q-18 -30 -52.5 -48.5t-77.5 -18.5h-280v97h277q24 0 37 11.5t13 28.5q0 22 -16 38l-249 259l-12 107l346 125l14 -95l-251 -96l323 -344q36 -34 67 -34h61v-97z" />
    <glyph glyph-name="Name_01.kaf.00" horiz-adv-x="377" 
d="M-50 0v97h276q24 0 37 11.5t13 28.5q0 23 -15 38l-249 259l-12 107l345 125l14 -95l-252 -96l224 -236q46 -50 46 -107q0 -55 -41 -93.5t-107 -38.5h-279z" />
    <glyph glyph-name="Name_00.gaf.00" horiz-adv-x="922" 
d="M875 815l1 -85l-331 -120l-5 86zM150 297h95v-128q0 -39 16.5 -55.5t54.5 -16.5h458q22 0 35 11.5t13 28.5q0 22 -16 38l-247 259l-14 107l347 125l12 -95l-249 -96l221 -236q46 -50 46 -107q0 -55 -40.5 -93.5t-106.5 -38.5h-489q-67 0 -101.5 40t-34.5 114v143z" />
    <glyph glyph-name="Name_00.gaf.01" horiz-adv-x="1055" 
d="M1044 0q-83 0 -140 69q-41 -69 -129 -69h-489q-67 0 -101.5 40t-34.5 114v143h95v-128q0 -39 16.5 -55.5t54.5 -16.5h458q22 0 35 11.5t13 28.5q0 22 -16 38l-247 259l-14 107l347 125l12 -95l-249 -96l310 -331l19 -19t15.5 -13.5t19.5 -11.5t19 -3h67v-97h-61zM876 825
l3 -85l-352 -130l-3 86z" />
    <glyph glyph-name="Name_01.gaf.01" horiz-adv-x="515" 
d="M565 0h-66q-83 0 -139 67q-18 -30 -52.5 -48.5t-77.5 -18.5h-280v97h277q24 0 37 11.5t13 28.5q0 22 -16 38l-249 259l-12 107l346 125l14 -95l-251 -96l323 -344q36 -34 83 -34h50v-97zM332 815l3 -85l-331 -120l-7 86z" />
    <glyph glyph-name="Name_01.gaf.00" horiz-adv-x="377" 
d="M-50 0v97h276q24 0 37 11.5t13 28.5q0 23 -15 38l-249 259l-12 107l345 125l14 -95l-252 -96l224 -236q46 -50 46 -107q0 -55 -41 -93.5t-107 -38.5h-279zM335 815l-1 -85l-334 -120v86z" />
    <glyph glyph-name="Name_00.lam.00" horiz-adv-x="735" 
d="M636 600h99v-563q0 -122 -63 -193.5t-177 -71.5h-109q-118 0 -177 57.5t-59 186.5v198h95v-198q0 -71 39 -108.5t113 -37.5h90q72 0 110.5 37t38.5 109v584z" />
    <glyph glyph-name="Name_00.lam.01" horiz-adv-x="881" 
d="M930 0h-110q-52 0 -84 41v-25q0 -99 -61.5 -171.5t-177.5 -72.5h-108q-119 0 -179 57.5t-60 186.5v198h97v-198q0 -71 39 -108.5t113 -37.5h91q149 0 149 146v584h97l-5 -426q0 -26 2.5 -38t12 -23.5t29.5 -14.5t55 -1h100v-97z" />
    <glyph glyph-name="Name_01.lam.01" horiz-adv-x="316" 
d="M271 0q-58 0 -87 36q-14 -17 -31.5 -25.5t-28.5 -9.5t-35 -1h-139v97h112q34 0 46 15t12 45v443h96v-443q0 -60 55 -60h95v-97h-95z" />
    <glyph glyph-name="Name_01.lam.00" horiz-adv-x="207" 
d="M-50 0v97h97q44 0 54.5 19t10.5 70v414h95v-454q0 -74 -35.5 -110t-117.5 -36h-104z" />
    <glyph glyph-name="Name_00.mim.00" horiz-adv-x="684" 
d="M354 171v118h-15q-50 0 -71.5 -24.5t-21.5 -72.5v-433h-96v421q0 89 52.5 147t138.5 58h166q88 0 132.5 -46t44.5 -133v-51q0 -67 -45.5 -113.5t-116.5 -46.5q-168 0 -168 176zM507 287h-57v-133q0 -30 21.5 -46t50.5 -16q33 0 55 16.5t22 45.5v38q0 93 -92 95z" />
    <glyph glyph-name="Name_00.mim.01" horiz-adv-x="784" 
d="M834 0h-62q-51 0 -78.5 13t-39.5 46q-48 -64 -133 -64q-169 0 -169 176v118h-13q-50 0 -71.5 -24.5t-21.5 -72.5v-433h-96v421q0 89 52.5 147t138.5 58h166q88 0 132.5 -46t44.5 -133v-56q1 -25 25 -39t63 -14h62v-97zM507 287h-58v-133q0 -30 21.5 -46t50.5 -16
q32 0 54 16.5t22 45.5v38q0 93 -90 95z" />
    <glyph glyph-name="Name_01.mim.01" horiz-adv-x="535" 
d="M585 0h-90q-74 0 -97 55q-22 -33 -58 -51.5t-75 -18.5q-84 0 -130 70q-12 -28 -34.5 -41.5t-65.5 -13.5h-85v97h85q24 0 38 4t20 16.5t7 23.5t1 36q0 87 41.5 147.5t122.5 60.5q76 0 122.5 -60t46.5 -149q0 -21 0.5 -29.5t3 -21t9 -17t18.5 -8t30 -3.5h90v-97zM346 184
q0 50 -21.5 76.5t-59.5 26.5t-60 -26.5t-22 -76.5q0 -51 22 -77t60 -26t59.5 26t21.5 77z" />
    <glyph glyph-name="Name_01.mim.00" horiz-adv-x="432" 
d="M346 184q0 50 -21.5 76.5t-59.5 26.5t-60 -26.5t-22 -76.5q0 -51 22 -77t60 -26t59.5 26t21.5 77zM-50 0v97h84q24 0 38 4.5t20 16.5t7.5 23.5t1.5 35.5q0 87 41.5 147.5t122.5 60.5q76 0 122 -60t46 -148q0 -91 -46 -141.5t-122 -50.5q-39 0 -73.5 18.5t-56.5 51.5
q-24 -55 -101 -55h-84z" />
    <glyph glyph-name="Name_00.nun.00" horiz-adv-x="750" 
d="M653 16v284h97v-284q0 -99 -61 -171.5t-177 -72.5h-123q-119 0 -179 57.5t-60 186.5v184h97v-184q0 -71 39 -108.5t113 -37.5h104q150 0 150 146z" />
    <glyph glyph-name="Name_00.nun.01" horiz-adv-x="879" 
d="M833 0q-52 0 -83 41v-25q0 -99 -61 -171.5t-177 -72.5h-123q-119 0 -179 57.5t-60 186.5v184h97v-184q0 -71 39 -108.5t113 -37.5h104q150 0 150 146v284h97v-164q5 -18 27.5 -28.5t55.5 -10.5h96v-97h-96z" />
    <glyph glyph-name="Name_00.vav.00" horiz-adv-x="486" 
d="M486 172v-152q0 -102 -67 -181.5t-174 -79.5h-123l-13 95h127q70 0 111.5 37.5t41.5 104.5q-130 0 -184.5 37t-54.5 147q0 100 38.5 151t125.5 51q52 0 87 -16.5t53 -47t25 -65.5t7 -81zM389 92v100q0 94 -75 94q-36 0 -54.5 -24.5t-18.5 -54.5v-28q0 -49 32 -68t116 -19
z" />
    <glyph glyph-name="Name_00.vav.01" horiz-adv-x="586" 
d="M485 0q-7 -96 -73.5 -168.5t-166.5 -72.5h-123l-13 95h127q70 0 111.5 39.5t41.5 106.5q-132 0 -185.5 35.5t-53.5 144.5q0 100 38.5 151t125.5 51q52 0 87 -16.5t53 -47t25 -65.5t7 -81v-75h150v-97h-151zM389 96v96q0 94 -75 94q-36 0 -54.5 -24.5t-18.5 -54.5v-28
q0 -50 30 -66.5t118 -16.5z" />
    <glyph glyph-name="Name_00.heh.00" horiz-adv-x="517" 
d="M262 364l-28 30l71 66l165 -164q28 -29 37.5 -58t9.5 -72q0 -71 -53 -127.5t-129 -56.5q-82 0 -133.5 51t-51.5 134q0 68 59 135zM396 224l-69 72l-58 -71q-23 -30 -23 -60q0 -34 24 -59.5t61 -25.5q39 0 65 23.5t26 56.5q0 32 -26 64z" />
    <glyph glyph-name="Name_00.heh.01" horiz-adv-x="684" 
d="M659 0q-52 0 -98 40l-64 55q-21 -51 -65 -84.5t-105 -33.5q-86 0 -131.5 53t-45.5 130q0 73 54 136l53 61l-27 30l72 67l270 -288q20 -20 31.5 -30.5t35.5 -24.5t45 -14h50v-97h-75zM394 220l-70 71l-60 -71q-23 -31 -23 -61q0 -35 24 -60t62 -25q39 0 64.5 23.5
t25.5 56.5q0 40 -23 66z" />
    <glyph glyph-name="Name_01.heh.01" horiz-adv-x="550" 
d="M600 97v-97h-234q64 -48 64 -123q0 -70 -42 -114t-120 -44q-75 0 -121.5 63.5t-46.5 158.5v59h-150v97h150v59q0 94 47 158.5t121 64.5q71 0 116.5 -45.5t45.5 -113.5q0 -34 -18 -72t-45 -51h233zM216 0h-26v-45q0 -63 23 -101.5t62 -38.5q65 0 65 69q0 46 -38.5 81
t-85.5 35zM190 142v-45h27q46 0 84.5 35.5t38.5 81.5q0 68 -65 68q-39 0 -62 -38.5t-23 -101.5z" />
    <glyph glyph-name="Name_01.heh.00" horiz-adv-x="615" 
d="M-50 0v97h194q9 0 14 2q-58 52 -58 127q0 62 46 108t107 46q62 0 106 -40l-50 54l71 66l175 -190q60 -63 60 -138q0 -64 -46 -116t-108 -52q-75 0 -198 66q-71 -30 -135 -30h-178zM469 221l-74 80q23 -33 23 -85q0 -77 -49 -117l-10 -10q66 -29 94 -29t48 19t20 46
q0 37 -52 96zM190 225q1 -33 19 -53t52 -38q2 2 6 4l3 2q59 33 59 85q0 25 -20.5 47.5t-49.5 22.5q-32 0 -50.5 -20.5t-18.5 -49.5zM392 304l-2 3q0 -1 2 -3z" />
    <glyph glyph-name="Name_00.yeh.00" horiz-adv-x="764" 
d="M764 -8q0 -96 -56 -164.5t-154 -68.5h-172q-232 0 -232 247v194h97v-206q0 -61 47.5 -102t106.5 -41h144q56 0 91.5 36t35.5 93q0 28 -28.5 47.5t-73.5 19.5h-119v162q0 74 49.5 126t119.5 52h117v-96h-125q-32 0 -51.5 -24.5t-19.5 -55.5v-75h60q66 0 114.5 -40
t48.5 -104z" />
    <glyph glyph-name="Name_00.maq.00" horiz-adv-x="764" 
d="M764 -8q0 -96 -56 -164.5t-154 -68.5h-172q-232 0 -232 247v194h97v-206q0 -61 47.5 -102t106.5 -41h144q56 0 91.5 36t35.5 93q0 28 -28.5 47.5t-73.5 19.5h-119v162q0 74 49.5 126t119.5 52h117v-96h-125q-32 0 -51.5 -24.5t-19.5 -55.5v-75h60q66 0 114.5 -40
t48.5 -104z" />
    <glyph glyph-name="Name_00.yeh.01" horiz-adv-x="851" 
d="M900 0h-163q8 -22 8 -43q0 -84 -61 -141t-138 -57h-170q-112 0 -169 71.5t-57 180.5v189h97v-205q0 -66 39 -103.5t101 -37.5h140q54 0 87 26.5t33 79.5q0 40 -51 40h-146l-6 97h456v-97z" />
    <glyph glyph-name="Name_00.laa.00TypeLIGATURE" horiz-adv-x="584" 
d="M486 600h98v-454q0 -72 -40.5 -109t-113.5 -37h-140q-140 0 -140 146v454h97v-428q0 -22 4.5 -36.5t13.5 -20t16.5 -7t19.5 -1.5h121q35 0 49.5 11t14.5 54v428z" />
    <glyph glyph-name="Name_00.laa.01TypeLIGATURE" horiz-adv-x="676" 
d="M726 0h-61q-73 0 -109 61q-24 -61 -111 -61h-149q-63 0 -104.5 38t-41.5 108v454h97v-414q0 -89 65 -89h110q64 0 64 89v414h96v-423q0 -80 84 -80h60v-97z" />
    <glyph glyph-name="Name_00.llah.00" horiz-adv-x="1116" 
d="M721 144v355h96v-343q0 -60 55 -60h109q23 0 33 13t10 47v444h92v-465q0 -65 -28.5 -100t-78.5 -35h-170q-49 0 -78 26q-38 -32 -82 -32q-61 0 -105 47l-79 83q-19 -59 -67 -91.5t-109 -32.5q-74 0 -121.5 51.5t-47.5 123.5q0 70 47 126l63 73l-29 31l66 64l325 -345
q20 -24 55 -24q44 0 44 44zM914 658q-2 -36 -22 -56t-48 -20q-49 0 -75 41q-14 -33 -41.5 -52t-55.5 -19q-27 0 -44.5 18t-17.5 53q0 43 24 94l33 -19q-15 -38 -15 -52q0 -35 32 -35q55 0 55 97l46 26q1 -98 52 -98q32 0 32 33q0 19 -27 60l37 27q32 -46 35 -98zM725 948h67
l-17 -182h-30zM387 241l-68 73l-60 -68q-22 -23 -22 -57q0 -35 23.5 -61.5t60.5 -26.5q40 0 65.5 24t25.5 57q0 31 -25 59z" />
    <glyph glyph-name="Name_00.lellah.00" horiz-adv-x="1116" 
d="M721 144v355h96v-343q0 -60 55 -60h109q23 0 33 13t10 47v453h92v-474q0 -65 -28.5 -100t-78.5 -35h-170q-49 0 -78 26q-38 -32 -82 -32q-61 0 -105 47l-79 83q-19 -59 -67 -91.5t-109 -32.5q-74 0 -121.5 51.5t-47.5 123.5q0 70 47 126l63 73l-29 31l66 64l325 -345
q20 -24 55 -24q44 0 44 44zM914 658q-2 -36 -22 -56t-48 -20q-49 0 -75 41q-14 -33 -41.5 -52t-55.5 -19q-27 0 -44.5 18t-17.5 53q0 43 24 94l33 -19q-15 -38 -15 -52q0 -35 32 -35q55 0 55 97l46 26q1 -98 52 -98q32 0 32 33q0 19 -27 60l37 27q32 -46 35 -98zM725 948h67
l-17 -182h-30zM387 241l-68 73l-60 -68q-22 -23 -22 -57q0 -35 23.5 -61.5t60.5 -26.5q40 0 65.5 24t25.5 57q0 31 -25 59zM1104 -128l12 -45l-285 -70l-14 42z" />
    <glyph glyph-name="Name_00.falellah.00" horiz-adv-x="1506" 
d="M914 659q-2 -36 -22 -56t-48 -20q-50 0 -75 41q-14 -33 -41.5 -52t-55.5 -19q-27 0 -44.5 18t-17.5 53q0 42 24 94l33 -19q-15 -37 -15 -53q0 -35 32 -35q55 0 55 98l46 26q1 -99 52 -99q32 0 32 34q0 20 -27 60l37 26q32 -45 35 -97zM725 949h67l-17 -183h-30zM387 241
l-68 73l-60 -68q-22 -23 -22 -57q0 -35 23.5 -61.5t60.5 -26.5q40 0 65.5 24t25.5 57q0 31 -25 59zM1359 0h-213q-56 0 -86 36q-14 -17 -31.5 -25.5t-29 -9.5t-34.5 -1h-126q-49 0 -78 26q-38 -32 -82 -32q-61 0 -105 47l-79 83q-19 -59 -67 -91.5t-109 -32.5
q-74 0 -121.5 51.5t-47.5 123.5q0 70 47 126l63 73l-29 31l66 64l325 -345q20 -24 55 -24q44 0 44 44v356h96v-343q0 -60 55 -60h67q33 0 44.5 15t11.5 45v343h96v-343q0 -60 55 -60h219q35 0 46 14.5t10 42.5h-105q-111 4 -111 133q0 63 41 104t105 41q74 0 114.5 -54.5
t40.5 -128.5v-67q0 -74 -41.5 -128t-105.5 -54zM1335 242h86q-1 41 -21 71.5t-56 30.5q-34 0 -50.5 -17t-16.5 -43q0 -37 58 -42zM1277 561q0 29 21 49t51 20q29 0 49.5 -20t20.5 -49t-20.5 -49.5t-49.5 -20.5t-50.5 20.5t-21.5 49.5zM1475 809l14 -45l-285 -70l-15 41z
M1166 -128l14 -45l-285 -70l-15 42z" />
    <glyph glyph-name="_348" horiz-adv-x="125" 
 />
    <glyph glyph-name="_349" horiz-adv-x="1071" 
 />
    <glyph glyph-name="_350" horiz-adv-x="274" 
 />
    <glyph glyph-name="_351" horiz-adv-x="1071" 
 />
    <glyph glyph-name="_352" horiz-adv-x="274" 
 />
    <glyph glyph-name="_353" 
 />
    <glyph glyph-name="_354" 
 />
    <glyph glyph-name="Name_01.behWide.01" horiz-adv-x="400" 
d="M293 0q-38 0 -57.5 7.5t-38.5 28.5q-18 -21 -39 -28.5t-59 -7.5h-149v97h142q59 0 59 72v131h98v-131q0 -72 60 -72h141v-97h-157z" />
    <glyph glyph-name="Name_01.behWide.00" horiz-adv-x="350" 
d="M-50 0v97h231q44 0 57.5 18t13.5 54v128h98v-143q0 -72 -35 -113t-104 -41h-261z" />
    <glyph glyph-name="Name_00.rehKutah.00" horiz-adv-x="350" 
d="M76 -143q86 0 130 36t44 101v306h100v-283q0 -113 -65 -185.5t-174 -72.5l-42 1l-17 97h24z" />
    <glyph glyph-name="Name_00.rehKutah.01" horiz-adv-x="480" 
d="M530 0h-101q-48 0 -79 42v-25q0 -113 -65 -185.5t-174 -72.5l-42 1l-17 97h24q86 0 130 36t44 101v306h100v-158q12 -45 79 -45h101v-97z" />
    <glyph glyph-name="Name_00.vavKutah.00" horiz-adv-x="486" 
d="M486 172v-152q0 -102 -67 -181.5t-174 -79.5h-123l-13 95h127q70 0 111.5 37.5t41.5 104.5q-130 0 -184.5 37t-54.5 147q0 100 38.5 151t125.5 51q52 0 87 -16.5t53 -47t25 -65.5t7 -81zM389 92v100q0 94 -75 94q-36 0 -54.5 -24.5t-18.5 -54.5v-28q0 -49 32 -68t116 -19
z" />
    <glyph glyph-name="Name_00.vavKutah.01" horiz-adv-x="613" 
d="M663 0h-178q-7 -96 -73.5 -168.5t-166.5 -72.5h-123l-13 95h127q70 0 111.5 39.5t41.5 106.5q-132 0 -185.5 35.5t-53.5 144.5q0 100 38.5 151t125.5 51q52 0 87 -16.5t53 -47t25 -65.5t7 -81v-75h177v-97zM389 96v96q0 94 -75 94q-36 0 -54.5 -24.5t-18.5 -54.5v-28
q0 -50 30 -66.5t118 -16.5z" />
    <glyph glyph-name="Name_00.himKutah.00" horiz-adv-x="614" 
d="M649 -366l10 -93h-262q-94 0 -158 21t-96.5 60t-45 82t-12.5 100q0 100 46.5 169.5t142.5 123.5l237 134q-4 24 -32.5 40t-78.5 16h-203l-11 93h230q198 0 199 -196l-320 -179q-59 -34 -91.5 -83t-32.5 -100q0 -188 221 -188h257z" />
    <glyph glyph-name="Name_00.einKutah.00" horiz-adv-x="629" 
d="M631 -366l14 -93h-261q-126 0 -209 78.5t-83 199.5q0 92 47 165t148 110q-38 55 -38 116q0 70 46 121t114 51q80 0 188 -73l-46 -73q-35 21 -48 28.5t-39.5 17t-48.5 9.5q-35 0 -53 -23.5t-18 -57.5q0 -43 25.5 -78.5t65.5 -35.5h180l14 -96h-293q-66 0 -111 -51.5
t-45 -117.5q0 -85 67.5 -141t167.5 -56h216z" />
    <glyph glyph-name="Name_00.yehWide.01" horiz-adv-x="899" 
d="M949 0h-212q8 -22 8 -43q0 -84 -61 -141t-138 -57h-170q-112 0 -169 71.5t-57 180.5v193h97v-209q0 -66 39 -103.5t101 -37.5h140q54 0 87 26.5t33 79.5q0 40 -51 40h-146l-6 97h505v-97z" />
    <glyph glyph-name="_364" 
 />
    <glyph glyph-name="Name_00.alf_TAA.00" horiz-adv-x="246" 
d="M246 0h-91v600h91v-600z" />
    <glyph glyph-name="Name_01.beh_B1P.00" horiz-adv-x="272" 
d="M-50 0v97h153q44 0 57.5 18t13.5 54v131h98v-146q0 -72 -35.5 -113t-104.5 -41h-182z" />
    <glyph glyph-name="Name_01.behWide_B2P.00" horiz-adv-x="350" 
d="M-50 0v97h231q44 0 57.5 18t13.5 54v128h98v-143q0 -72 -35 -113t-104 -41h-261z" />
    <glyph glyph-name="Name_00.reh_T3P.00" horiz-adv-x="300" 
d="M26 -143q86 0 130 36t44 101v305h100v-282q0 -113 -65 -186t-174 -72l-77 1l-18 97h60z" />
    <glyph glyph-name="Name_00.reh_T3P.01" horiz-adv-x="400" 
d="M379 0q-48 0 -79 42v-25q0 -113 -65 -186t-174 -72l-77 1l-18 97h60q86 0 130 36t44 101v306h100v-158q12 -45 79 -45h71v-97h-71z" />
    <glyph glyph-name="Name_00.him_B3P.00" horiz-adv-x="614" 
d="M649 -366l10 -93h-262q-94 0 -158 21t-96.5 60t-45 82t-12.5 100q0 100 46.5 169.5t142.5 123.5l237 134q-4 24 -32.5 40t-78.5 16h-203l-11 93h230q198 0 199 -196l-320 -179q-59 -34 -91.5 -83t-32.5 -100q0 -188 221 -188h257z" />
    <glyph glyph-name="_371" horiz-adv-x="290" 
 />
    <glyph glyph-name="_372" horiz-adv-x="290" 
 />
    <glyph glyph-name="_373" horiz-adv-x="394" 
 />
    <glyph glyph-name="_374" horiz-adv-x="221" 
 />
    <glyph glyph-name="Name_01.kaf_K1.00" horiz-adv-x="820" 
d="M-30 9v80q0 8 30 8h605q56 0 87.5 22t31.5 53t-31.5 54t-87.5 23h-540l-65 117l321 321l70 -68l-274 -274h488q100 0 157.5 -52t57.5 -121q0 -70 -57 -121t-158 -51h-605q-30 0 -30 9z" />
    <glyph glyph-name="Name_01.kaf_K1.01" horiz-adv-x="902" 
d="M902 0h-11q-51 0 -78 13t-41 46q-59 -59 -167 -59h-605v97h605q56 0 87.5 22t31.5 53t-31.5 54t-87.5 23h-540l-65 117l321 321l70 -68l-274 -274h488q100 0 157.5 -52t57.5 -121q0 -29 -6 -46q18 -29 77 -29h11v-97zM-30 9v80q0 8 30 8v-97q-30 0 -30 9z" />
    <glyph glyph-name="Name_01.gaf_K1.00" horiz-adv-x="820" 
d="M-30 9v80q0 8 30 8h605q56 0 87.5 22t31.5 53t-31.5 54t-87.5 23h-540l-65 117l321 321l70 -68l-274 -274h488q100 0 157.5 -52t57.5 -121q0 -70 -57 -121t-158 -51h-605q-30 0 -30 9zM214 760l46 -53l-245 -247l-51 51z" />
    <glyph glyph-name="Name_01.gaf_K1.01" horiz-adv-x="902" 
d="M902 0h-11q-51 0 -78 13t-41 46q-59 -59 -167 -59h-605q-30 0 -30 9v80q0 8 30 8h605q56 0 87.5 22t31.5 53t-31.5 54t-87.5 23h-540l-65 117l321 321l70 -68l-274 -274h488q100 0 157.5 -52t57.5 -121q0 -29 -6 -46q18 -29 77 -29h11v-97zM214 780l46 -73l-245 -247
l-51 71z" />
    <glyph glyph-name="Name_01.heh_A1.01" horiz-adv-x="640" 
d="M640 0h-11q-55 0 -85 34q-47 -70 -122 -70t-198 66q-71 -30 -135 -30h-89q-30 0 -30 9v80q0 8 30 8h105q9 0 14 2q-58 52 -58 127q0 62 46 108t107 46q62 0 106 -40l-50 54l71 66l175 -190q60 -63 60 -138q0 -15 -5 -35h69v-97zM430 221l-79 86q0 -1 3 -3q25 -35 25 -88
q0 -77 -49 -117l-10 -10q66 -29 94 -29t48 19t20 46q0 37 -52 96zM151 225q1 -33 19 -53t52 -38q2 2 6 4l3 2q59 33 59 85q0 25 -20.5 47.5t-49.5 22.5q-32 0 -50.5 -20.5t-18.5 -49.5z" />
    <glyph glyph-name="Name_00.yeh_K1.00" horiz-adv-x="1011" 
d="M994 97l17 -97h-669q-101 0 -146.5 49t-45.5 123q0 71 52.5 122t153.5 51h193v-96h-197q-57 0 -84 -22.5t-27 -54.5t26 -53.5t84 -21.5h643z" />
    <glyph glyph-name="Name_00.yeh_K1.01" horiz-adv-x="375" 
d="M376 0h-42q-56 0 -84 -22t-28 -54q0 -64 107 -64h527l18 -98h-540q-105 0 -154 45t-49 117q0 70 53.5 121.5t147.5 51.5h44v-97z" />
    <glyph glyph-name="_382" 
 />
    <glyph glyph-name="_383" 
 />
    <glyph glyph-name="_384" horiz-adv-x="170" 
 />
    <glyph glyph-name="_385" horiz-adv-x="341" 
 />
    <glyph glyph-name="_386" horiz-adv-x="1071" 
 />
    <glyph glyph-name="_387" 
 />
    <glyph glyph-name="_388" horiz-adv-x="274" 
 />
    <glyph glyph-name="_389" 
 />
    <glyph glyph-name="_390" 
 />
    <glyph glyph-name="_391" 
 />
    <glyph glyph-name="_392" 
 />
    <glyph glyph-name="_393" horiz-adv-x="170" 
 />
    <glyph glyph-name="_394" horiz-adv-x="170" 
 />
    <glyph glyph-name="Namedoaa_Besm" horiz-adv-x="2377" 
d="M677 702q396 0 715 228q-14 4 -37 24q-23 16 -46 16q-5 0 -48 -28q-3 -3 -7 -4t-5 2q0 9 8 10q48 51 73 51q27 0 56 -21q48 -19 56 -19l19 1q11 0 11 -7q0 -4 -25 -25q-8 -4 -53 -35q-176 -141 -373 -218q-193 -67 -344 -67q-91 0 -155 11q-26 8 -52 24q-12 10 -39 10
q-31 0 -61 -36q-2 -1 -6.5 -6t-7.5 -7q18 0 44 -14q24 -7 24 -23q0 -23 -15 -45q-22 -36 -53 -48q-170 -41 -185 -135q-20 -95 -25 -247q-1 -44 -2.5 -82.5t-2.5 -58.5t-1 -23q-15 135 -15 197q0 117 30 230q38 127 141 175q30 73 74 117q75 82 124 82q16 0 60 -15
q39 -14 123 -14zM1506 104q154 0 313 47q212 62 331 184q36 35 47 72q23 52 44 77q2 1 4 3l3.5 3.5t2.5 1.5t1 -2t-1 -5.5t-2 -8.5q-34 -108 -99 -184q-117 -146 -349 -225q-179 -56 -295 -56q-95 0 -150 23q-11 -23 -22 -23q-19 0 -37 23q-22 22 -35 22q-35 0 -58 -31
l-19 -39q-26 -82 -26 -237v-19q0 -96 -9 -133q-13 91 -13 183q0 142 34 217q35 102 118 134q3 2 11 11.5t9 9.5q7 -2 21 -13q60 -35 176 -35zM1019 325q0 -15 -14 -38q-8 -21 -21 -21l-20 6q-17 9 -29 9q-14 0 -40 -42q-31 -37 -59 -40q-6 0 -24 -68q-27 -123 -97 -204
q-73 -92 -170 -92q-121 0 -121 131q0 73 55 186q6 9 10 10q5 0 5 -1v-10q-39 -77 -39 -125q0 -46 39 -75q27 -22 80 -22q94 0 158 78q56 68 67 172q-3 16 -5 40q-3 38 22 38q1 0 11.5 -0.5t18.5 -0.5q34 0 58 36q29 35 46 48q10 35 40 65q49 54 125 82q2 0 2 5q-1 0 -3 2
q-28 6 -55 6q-40 -6 -64 -28l-5 -3h-6q0 3 6 7q29 63 72 68q18 3 90 -3q34 -3 34 -20q0 -11 -14 -29q-12 -21 -26 -25l-8 -3q-8 -4 -20 -9.5t-28 -10.5q-69 -32 -100 -69q-8 -5 -8 -11q0 -7 20 -20q17 -17 17 -19zM1829 492q0 -16 1 -25q4 -24 4 -32q0 -31 -24 -86
q-54 -107 -108 -107q-28 0 -42 27q-38 -59 -89 -59q-27 0 -47 15q-4 5 -18 39q-72 -62 -95 -69q-18 -9 -19 -9l-6 3q63 62 151 156q14 22 17 0q3 -52 53 -49q57 8 80 68q2 7 7 12.5t8 5.5q10 0 8 -15q-6 -37 29 -37q21 0 38 11.5t17 25.5q0 1 -0.5 4t-1.5 8.5t-1 12.5
q-5 16 -5 24q0 2 1.5 6t5 13.5t6.5 19.5q14 36 22 41q2 9 4 9q4 -1 4 -3v-10zM1195 239q0 3 1.5 21t5.5 60.5t8 88.5q1 30 39 125q1 7 8 7q3 -2 2 -10q-6 -20 -15 -106q-7 -118 -34 -186q-33 -84 -80 -100q-44 -24 -69 -83q-12 -34 -51 -61q-15 -9 -81 -23q-12 0 -19 5
q0 5 15 13l86 61q16 13 31 28q16 25 19 35q21 57 73 87q3 2 14 7t17 9q19 9 30 22zM494 269l12 123q0 29 39 124q0 8 9 8q1 -7 0 -10q-11 -87 -13 -107q-7 -74 -32 -138q-31 -83 -79 -103q-43 -17 -70 -82q-21 -46 -53 -60q-13 -8 -80 -24q-3 0 -8.5 1t-8.5 1q0 8 11 17
q61 42 86 62q23 18 32 23q16 20 21 40q17 54 71 86q19 9 30 15q23 10 33 24zM1004 -174q0 -15 -14 -39q-22 -22 -26 -22q-11 0 -20 11q-11 11 -25 19q-30 -48 -42 -48q-5 0 -23 18l-23 16q0 7 20 43l24 31q8 0 24 -11q19 -15 25 -24l33 51q9 0 33 -16q14 -15 14 -29z
M1620 -174q0 -15 -18 -37q-19 -22 -26 -22q-4 0 -14 10q-5 3 -10.5 8t-8.5 7.5t-7 3.5q-33 -45 -45 -45q-2 0 -21 16l-23 14q0 11 20 43q22 32 24 32q23 0 48 -36q29 51 36 51q9 0 27 -16q18 -15 18 -29zM1405 552q-8 -104 -25 -222q-12 -77 -43 -125l-5 -5v1q-4 0 0 8
q0 12 23 238q2 21 41 108q4 5 6 12q3 0 8 -5q0 -3 -5 -10zM696 542q-2 -26 -19 -170q-10 -79 -41 -123q-4 -2 -6 -4v10q8 62 9 89q3 24 4.5 46t2 32.5t0.5 12.5q1 29 43 109q1 8 6 8q1 3 2 0q0 -8 -1 -10zM1957 584q0 -14 -16 -168q-9 -74 -45 -124q-1 -6 -6 -6h-1q0 6 1 8
q2 5 12 92q4 89 8 90q3 25 40 111q0 3 6 10q1 0 1 -5v-8zM676 115q0 -8 -15 -36q-19 -25 -25 -25l-2 1q-2 1 -9.5 4t-17.5 8q-23 17 -23 20q0 18 16 47q13 28 22 28q19 0 35 -12q19 -21 19 -35zM2014 -88q0 -16 -17 -37q-11 -20 -21 -20t-27 16q-22 17 -22 19q0 17 17 40
q12 31 20 31q17 0 32 -16q18 -18 18 -33zM1576 -276q0 -13 -14 -34q-16 -24 -22 -24l-3 2q-3 2 -9 6.5t-13 7.5q-19 16 -19 20q0 7 18 35q15 30 23 30q9 0 25 -16q14 -10 14 -27zM1737 539q-9 -43 -31 -43q-14 0 -20 15q-18 -26 -35 -26q-19 0 -19 22q0 34 12 34q4 0 7 -16
q0 -6 3 -10.5t5 -4.5q9 0 20 16q4 18 11 18q1 -4 1 -13q9 -10 16 -10q18 0 24 30q0 5 4 6q1 0 2 -2v-16zM387 350q-5 -40 -31 -40q-12 0 -20 15q-17 -29 -34 -29t-17 25q0 33 11 33q2 0 6 -17q3 -15 5 -15q16 0 20 18q11 17 14 17q1 -5 5 -13q1 -12 15 -12t21 29q3 9 3 6
q6 -4 2 -17zM1220 654q-9 -39 -31 -39q-9 0 -18 12q-19 -27 -36 -27q-18 0 -18 21q0 35 13 35q4 0 5 -17l6 -15q13 0 23 20q5 16 10 16q1 0 6 -14q0 -10 15 -10q13 0 19 30q0 3 2 4.5t4 -1.5q3 -3 0 -15zM1721 669q0 -41 -22 -70q-4 0 -8 1q23 65 -1 106q1 18 16 18
q7 0 9 -18q6 -12 6 -37z" />
    <glyph glyph-name="Namedoaa_Taala" horiz-adv-x="1529" 
d="M1247 780l34 42q18 0 35 -30v-3q-29 -54 -47 -54l-34 16q-22 -29 -36 -36l-37 16q-8 0 -8 1v2q46 61 47 66h3q21 0 43 -20zM1194 519q0 23 40 86l2 -25q0 -23 -6 -43q-16 -56 -50.5 -101.5t-78.5 -45.5q-9 1 -19 9q-126 -100 -281 -155t-294 -55q-125 0 -181 39.5
t-56 131.5q0 80 40 199q2 7 6 4q2 -2 1 -6q-16 -97 -16 -127v-3q0 -71 64 -105.5t162 -36.5q281 0 508 134q25 14 25 21q0 6 -5.5 10t-13 6t-14.5 3t-13 1l-5 1q0 20 25 37t52 19q59 0 59 -30q0 -12 -24 -45q-2 -2 -2 -5q0 -6 7 -6q16 1 42 20.5t26 45.5v22zM664 771
q13 49 27 80q4 5 5 0q11 -66 11 -119q0 -144 -75 -247q-3 -3 -6 -10t-2 -14t10 -7q7 0 192 43q14 5 16 -3q2 -4 -7 -7q-2 0 -4 -1q-82 -27 -135 -62q-56 -27 -97 -27q-16 0 -25.5 9t-3.5 24q9 38 84 145q21 39 21 84zM1390 487q2 11 9 14q4 -1 5 -9q0 -21 -11.5 -43
t-36.5 -28q-17 -19 -27 -22q-14 -3 -17 -3t-13 5.5t-18 7.5q-36 10 -45 -28q0 -2 17 -21.5t17 -27.5q0 -32 -40 -63l-58 16q-17 0 -43 -21q-139 -120 -300.5 -192t-322.5 -72q-95 0 -171 26q-9 3 -50 25.5t-46 22.5q-11 0 -107 -107q-9 -9 -5 3q20 34 64 90.5t76 76.5
q20 11 35 5q115 -47 238 -47q310 0 564 200q30 24 95 65q23 61 67 85q28 13 46 0q11 -9 19 -9q14 0 23 23q28 0 36 28zM1341 322q2 6 4 9t4.5 0.5t2.5 -10.5q-20 -149 -20 -174q0 -72 29 -72q23 0 34 20q7 11 7 3q0 -2 -1 -6v-3q-4 -29 -24 -67t-45 -38q-14 0 -23 15.5
t-10 42.5q-3 73 6 127.5t36 152.5zM1276 -131q44 71 49 73q23 0 42 -26l2 -4q-19 -47 -45 -61h-2q-30 15 -46 16v2z" />
    <glyph glyph-name="Namedoaa_Sad" horiz-adv-x="1561" 
d="M1347 710q-15 -22 -36 -30q-16 -6 -155 -53q-59 -19 -181 -68q-9 -4 -10 -3q-4 0 0 5q6 14 10 20q7 11 14 14q82 33 341 127q10 5 20 5q5 0 5 -2q0 -4 -8 -15zM880 842q0 -22 -13 -35q-11 -12 -36 -25q-69 -36 -120 -33l9 4l31.5 14t45.5 20q62 30 83 55zM811 646
q-10 0 -19 5q-10 -11 -27 -11q-18 0 -18 21q0 13 10 29q11 17 15 17q3 0 3 -1q0 -2 -3 -13.5t-3 -15.5q0 -10 8 -10h5q10 3 15 22q6 17 13 17q2 0 2 -5v-14q0 -11 10 -11q12 0 15 25q0 10 5 10q8 0 8 -15q0 -20 -10 -34q-13 -16 -29 -16zM1397 216q-10 -14 -36 -29l-159 -75
l-10 -2q-1 1 0 7q11 21 29 32q48 22 168 81q14 7 17 7t3 -3q0 -4 -12 -18zM1424 455q-10 -47 -72 -78q-52 -25 -110 -25q-21 0 -45 8q-4 -13 -9 -26t-10 -25.5l-7 -17.5q-8 -20 -14 -29q0 3 -2 5q11 61 25 99l-33 24q-18 -20 -53 -38q-38 -16 -62 -16q-80 0 -110 94
q0 -60 -37 -109q29 -7 72 -14q18 -5 18 -18q0 -2 -2 -11t-3 -16q-15 -50 -108 -98q-83 -44 -145 -44q-52 0 -90 32q-35 32 -35 82q0 33 17 68q20 50 28 50v-1q0 -6 -7 -24q-13 -32 -13 -61q0 -94 115 -94q79 0 210 83q10 7 10 11q0 13 -95 23q-18 1 -18 8q0 9 13 29
q2 2 10 8t12 10q16 14 21 40v18q0 27 -10 159q-10 99 -10 135q0 19 7 40q8 23 17 30q12 -311 83 -357q36 -22 73 -22q44 0 81 29q20 15 21 15q3 0 10 -4q27 -20 40 -20q110 100 164 100q8 0 11 -1q45 -14 45 -32q0 -6 -3 -19zM432 731q-4 -21 -10 -21q-5 0 4 39q1 7 1 21
q0 39 -20 62q6 42 12 42q1 -2 2 -2q26 -32 26 -72q0 -30 -15 -69zM652 382q0 -14 -13 -33q-10 3 -10 8q0 15 -14 179q-13 156 -13 176q0 7 14 30q10 24 19 24q0 -88 9 -209q10 -131 10 -160q0 -10 -2 -15zM1082 167q-9 -15 -36 -28l-159 -74q-7 -4 -10 -3q-2 0 0 5
q13 25 30 33l167 81q10 6 17 6q3 0 3 -1q0 -6 -12 -19zM1432 -81q-52 -87 -145 -102q-11 -3 -21 -3q-59 0 -89 68q-11 -43 -21 -62q-19 -38 -47 -38q-6 0 -37 12q-27 11 -31 11l-4 -1q-27 -25 -38 -30q-26 -14 -67 -14q-44 0 -65 35q-18 28 -27 97q-40 -55 -73 -55
q-13 0 -31 5q-39 14 -41 15q-13 4 -13 14q0 8 20 40q6 7 37 20q52 20 73 33q15 9 15 16v2q0 1 -1 7t-2 13q14 48 16 53q14 -13 19 -68q4 -80 7 -95q14 -80 96 -80q40 0 84 30q6 5 16 5q9 0 30 -11q20 -12 44 -12t15 86l-34 322q15 48 24 48l1 -3q0 -4 25 -197q13 -78 15 -96
q7 -44 25 -73q29 -49 59 -49q-17 26 -17 57q0 34 30 76q32 44 71 44q17 0 37 -17q18 -14 23 -40q1 -6 1 -13q0 -3 -4 0l-3 3q-3 2 -5 4q-31 21 -57 21q-22 0 -42.5 -13t-27.5 -32q0 -28 23 -53q20 -24 42 -24q42 0 95 69q7 -18 0 -25zM422 622q-12 0 -17 5q-12 -11 -29 -11
q-19 0 -19 21q0 10 12 29q12 16 16 16q2 0 2 -1t-3 -13t-3 -16q0 -10 8 -10h5q11 5 15 22t12 17q4 0 4 -4q0 -1 -1.5 -7t-1.5 -8q0 -11 13 -11q12 0 12 26q4 10 8 10q7 0 7 -15q0 -19 -10 -33q-11 -17 -30 -17zM1051 12q-7 -24 -25 -60q-14 -23 -76 -45q-2 0 -5.5 -0.5
t-4.5 -0.5q-9 0 -9 4q0 5 11 11q78 39 78 56q0 3 -5 3q-22 0 -64 -18q-5 -3 -7.5 -3.5t-3.5 0.5t2 13q11 40 74 54q4 0 11 1.5t10 1.5q15 0 15 -10q0 -4 -1 -7zM304 676q5 -31 -2 -31l-2 2q-8 9 -25 14q-16 -39 -53 -70q-45 -40 -95 -46q25 13 75 54q49 46 58 65
q-43 10 -43 33q0 15 4 25q13 54 36 54q12 0 20 -24q6 -17 3 -63q21 -6 24 -13zM539 449q8 -24 8 -59q0 -39 -10 -59q-15 -25 -37 -25q-17 0 -36 13q-17 12 -27 27q-37 -57 -81 -57q-35 0 -50 25q-13 22 -24 88q-6 -9 -12 -17t-11.5 -14.5t-7.5 -8.5q-18 -15 -41 -15
q-11 0 -31 5q-6 2 -13 4.5t-11 4l-8 3t-5.5 2.5t-2.5 1q-14 5 -14 14t21 40q4 6 36 20q52 20 73 33q16 10 16 16l-1 6q-2 9 -3 16q11 38 15 53q15 -14 20 -68q7 -94 7 -95q9 -56 53 -56q22 0 47 13q11 4 11 18q0 15 -11 62q-3 25 -17 92q-2 10 2 31q5 31 11 37
q10 -20 17 -72q8 -52 10 -73q18 -84 63 -92h17q15 0 15 10q0 9 -20 69q-17 60 -17 96q0 43 21 62q-6 -58 28 -150zM1140 -323l-31 -45q-16 7 -55 30l-2 2q0 20 25 43q13 -1 40 -15q23 -9 23 -15zM550 57q-6 0 -3 40q5 48 -30 80q7 42 9 42q1 0 1 -2q35 -31 35 -88
q0 -22 -3 -40q-4 -32 -9 -32zM1041 -333l-30 -45q-16 7 -55 30v4q0 20 23 43q14 -4 38 -15q24 -13 24 -17zM512 -116q-2 -29 -7 -40q-4 2 -8 11q-1 2 -2 5t-2 4.5t-1 2.5q3 15 -5 57q-3 17 -10.5 60t-11.5 67q-21 114 -21 133q0 8 8 32q11 23 14 23q1 0 1 -7q0 -25 20 -162
q2 -15 7 -44t7 -42q11 -62 11 -100zM831 -228q0 -34 -46 -61q-64 -37 -119 -37q1 2 84 42q62 31 81 56zM660 -79q2 -7 2 -22q0 -46 -33 -97q-32 -43 -70 -70q-38 -25 -57 -25q-40 0 -85 14q-38 9 -38 16h7q11 -1 35 -1q67 0 125 31q57 30 93 85q3 5 3 15q0 19 -13 44
q-19 -54 -47 -54q-40 0 -40 45q0 18 10 48q27 64 52 64q29 0 56 -93zM397 -104q0 -92 -50 -92q-49 0 -70 118q-19 -32 -26 -38q-14 -14 -34 -14q-14 0 -32 6q-10 2 -20.5 5t-15.5 4.5t-7 1.5q-12 6 -12 15t17 40q4 6 32 17q35 12 67 33q14 7 14 15v2q-1 2 -2 8.5t-3 14.5
q2 10 14 52q16 -14 22 -67q9 -83 11 -95q15 -67 58 -67q22 0 22 14q0 27 -20 123q-21 105 -27 128q-5 20 -5 37q0 9 -5 27l-13 23q0 8 23 43q3 -19 7 -26q4 -5 28 -22q5 -2 5 -7q0 -3 -19 -38q3 -15 11.5 -60.5t14.5 -69.5q15 -84 15 -131zM227 -316q-7 0 -2 38q3 49 -30 82
l7 41q3 0 3 -1q36 -33 36 -88q0 -6 -4 -42q-7 -30 -10 -30zM1392 439v3q0 13 -47 20q-3 2 -8 2q-24 0 -112 -62q7 -2 27 -2q49 0 80 10q44 10 60 29zM267 694q0 26 -5 35q-5 5 -10 5q-15 0 -21 -17q-3 -9 10 -15q11 -3 26 -8zM832 -95q8 17 0 47q-21 -18 -57 -35
q-33 -14 -36 -21q33 -14 53 -14q32 0 40 23zM276 416q6 16 0 46q-22 -17 -59 -35q-31 -15 -35 -21q31 -14 55 -14q30 0 39 24zM620 -73q0 7 -13 23q-12 15 -20 15q-5 0 -5 -3q-15 -15 -15 -28q0 -11 9 -19t21 -8q23 0 23 20zM269 -68q4 13 -5 49q-17 -18 -50 -34
q-26 -11 -28 -18q39 -15 56 -15q20 0 27 18z" />
    <glyph glyph-name="Namedoaa_Ein" horiz-adv-x="1575" 
d="M1259 232q0 -12 -12 -35q-10 3 -10 8q-68 387 -68 419q0 8 8 32q12 24 18 25q10 -83 37 -260q27 -171 27 -189zM866 392q-11 0 -22 8q-17 -14 -35 -14q-22 0 -22 26q0 15 14 35q13 20 19 20q2 0 2 -1q0 -7 -5 -16q-2 -16 -2 -18q0 -13 10 -13q1 0 3 0.5t3 0.5q11 3 19 26
q6 20 15 20q4 0 4 -6q0 -1 -1 -8t-1 -10q0 -13 13 -13q14 0 17 31q0 12 9 12q8 0 8 -17q0 -22 -13 -41q-14 -22 -35 -22zM854 646l-13 -29q-20 0 -74 -13q-45 -10 -60 -19q-21 -18 -21 -44l23 -74q23 -72 23 -135q0 -36 -10 -65q-9 -31 -15 -38q-2 -5 -3 -2q-2 3 0 14.5
t5 31.5t3 37q0 49 -21 122q-22 78 -22 107q0 21 11 43q13 33 42 50q25 7 57 24q-12 16 -30 16q-20 0 -27 -8q-3 -4 -8.5 -12.5t-8.5 -12.5q-5 -5 -6 -5q-3 0 -2.5 3.5t3.5 9.5q30 73 66 73q9 0 85 -51q10 -8 3 -23zM401 657q0 -46 -22 -80l-5 -7h-2q3 7 8 22q7 25 7 43
q0 42 -68 116q7 19 20 39q62 -67 62 -133zM1042 292q0 -19 -12 -50q-13 -31 -30 -31t-29 6q-12 5 -15 5h-1q-23 -26 -25 -30q-14 -12 -33 -12q-21 0 -33 15q-52 -46 -133 -46q-15 0 -22 12q-37 -25 -77 -25q-76 0 -93 75q-10 48 -25 216q0 -46 -22 -105q-25 -80 -75 -130
q-56 -49 -101 -70q-45 -20 -119 -35l-67 -10q-5 0 -5 2q0 8 100 48q161 71 211 130q35 46 44 85q6 30 6 95q0 42 -5 80l-2 24t-1.5 17.5t-0.5 7.5q0 33 14 63q29 -48 46 -187q5 -58 19 -176q13 -79 73 -79q75 0 98 27q27 30 27 25q0 -1 -1 -4t-1 -5q-10 -38 5 -38
q22 0 55 14q35 12 44 25q1 1 8 25q5 20 8 20v-2q1 -1 2 -3t1 -4q3 -29 6 -33q4 -4 21 -4q34 0 34 9q0 25 11 47l22 -16q15 -11 36 -11t21 22q0 12 -4 25q-4 24 -25 108q-18 69 -18 100l-8 18q-7 18 -7 29q0 34 11 66q3 8 5 9q5 0 5 -50q0 -12 16 -21q17 -9 15 -20
q-1 -19 -11 -43q0 -3 24 -110q13 -57 13 -100zM1447 -40q-52 -83 -165 -103q-20 -2 -27 -2q-41 0 -65 26q-19 23 -33 61q-31 -100 -70 -100q-7 0 -35 18q-22 16 -27 16h-3q-9 -11 -20 -20q-18 -15 -55 -29q-102 -38 -263 -38q-145 0 -198 72q-33 39 -44 136q-38 -57 -72 -57
q-13 0 -31 6q-39 14 -42 14q-12 6 -12 14q0 11 20 40q7 10 37 20q48 20 73 33q16 10 16 17l-1 8q-2 9 -3 15l15 52q16 -16 19 -69q6 -87 6 -93q28 -156 247 -156q124 0 203 20q77 16 102 46q9 9 16 9t34 -15q25 -16 46 -16q24 0 15 85l-33 322q13 48 23 48l1 -3
q5 -70 26 -197q18 -105 19 -109q15 -67 40 -99q18 -28 55 -28q-26 35 -26 68q0 40 32 83q37 47 88 47q18 0 36 -15q19 -15 24 -40q1 -7 1 -15h-4l-4.5 4.5l-3.5 3.5q-32 22 -57 22q-33 0 -60 -18q-20 -13 -28 -35q9 -43 41 -72q26 -20 51 -20q41 0 96 69q4 -17 0 -26z
M870 49q-5 -20 -25 -62q-11 -20 -76 -43q-4 -2 -10 -2q-8 0 -8 5q0 2 10 10q78 40 78 57q0 3 -4 3q-24 0 -64 -20q-11 -3 -12 -2t2 14q9 38 74 53q18 4 22 4q14 0 14 -11q0 -4 -1 -6zM437 347q0 -51 -21 -90q-4 -2 -4 -5v2q2 7 4 23q4 20 4 43q0 31 -28 80q-35 58 -75 86
q-51 -5 -90 6q-42 14 -42 72q0 53 12 53h5q110 -53 172 -122q63 -70 63 -148zM856 -320q0 -2 -30 -45q-19 8 -55 31l-1 1q0 20 24 44q6 -2 38 -15q24 -11 24 -16zM757 -329q0 -3 -30 -45q-21 9 -55 30q-2 2 5 20q12 19 18 25q16 -3 40 -14q22 -12 22 -16zM411 -136
q-3 -26 -29 -47q-22 -19 -51 -30q-45 -17 -82 -17q-15 0 -22 2q7 5 83 32q68 24 101 60zM432 6q8 20 0 58q-22 -21 -70 -43q-40 -18 -43 -26q43 -18 66 -18q36 0 47 29z" />
    <glyph glyph-name="Namedoaa_EinHa" horiz-adv-x="1562" 
d="M1392 421q-2 -34 -45 -59q-44 -23 -68 -22q2 2 52 30q43 24 61 51zM1251 232q0 -27 -7 -40q-2 0 -8 10q-1 3 -2 5.5t-1.5 4t-0.5 2.5q3 19 -5 57q-6 35 -23 128q-22 123 -22 133q0 7 10 32q8 23 13 23q2 -1 2 -6q0 -33 19 -164l14 -85q11 -71 11 -100zM890 700
q-5 -25 -33 -49q-26 -20 -58 -34q-56 -18 -92 -18q-13 0 -23 3q5 3 92 35q76 25 114 63zM877 307q-11 0 -21 5q-16 -11 -31 -11q-20 0 -20 23q0 14 12 33t18 19q1 0 1 -4q0 -1 -3 -13t-3 -17q0 -11 9 -11q3 0 6 1q9 3 17 24q7 18 13 18q4 0 4 -5q0 -1 -1 -7.5t-1 -9.5
q0 -12 12 -12q11 0 16 29q0 11 7 11q9 0 9 -18q0 -20 -12 -36q-12 -19 -32 -19zM684 55q-8 -58 -27 -89q-19 -39 -23 -39q-2 0 -2 2q0 5 14 42q19 48 19 89q0 70 -5 115q0 5 -2 13t-4.5 21t-4.5 23q-12 66 -12 99q0 18 10 45q16 36 43 48q15 3 57 23q-14 17 -30 17
q-20 0 -27 -8q-13 -20 -18 -26q-3 -4 -5 -4q-4 0 0 14q31 72 67 72q12 0 83 -51q11 -6 5 -24q-12 -28 -13 -28q-19 0 -74 -12q-49 -12 -59 -20q-24 -21 -24 -45q0 -2 15 -75q0 -2 5 -28t5.5 -31.5t4 -27.5t4 -31.5t1.5 -26.5t0 -30.5t-3 -26.5zM677 112q-52 0 -75 27
q-27 34 -38 103q-4 27 -14 125q0 -47 -20 -106q-30 -85 -76 -129q-42 -41 -104 -61l-88 -29q7 -72 54 -100q62 -38 134 -38q176 0 279 30q61 97 127 155l1 1h2q6 0 13 -15t7 -34q0 -2 -1 -8.5t-1 -10.5q-15 -74 -72 -103q31 0 102 23q74 24 105 48q15 6 17 6q7 0 30 -12
t43 -12q23 0 15 85l-33 324q12 46 23 46q2 -1 2 -3q3 -61 26 -197q13 -79 17 -108q15 -64 40 -100q22 -28 57 -28q-28 37 -28 70q0 40 34 81q38 49 87 49q18 0 35 -15q21 -18 24 -40q2 -15 1 -15q0 -4 -2 0q-2 1 -5 3t-4 3q-34 23 -56 23q-35 0 -61 -18q-22 -16 -28 -36
q9 -46 41 -70q25 -22 52 -22q38 0 95 70q5 -19 0 -27q-54 -84 -164 -102q-10 -3 -28 -3q-40 0 -65 27q-17 18 -33 61q-27 -99 -68 -99q-9 0 -37 11q-26 10 -32 10h-3q-39 -33 -143 -61q43 -24 43 -51t-27 -58q-23 -27 -37 -27q-41 0 -91 32q-42 30 -42 75q-15 0 -28 -7v27
q-67 -25 -222 -25q-126 0 -177 60q-32 38 -38 120q-91 -25 -115 -25q-2 0 -2 2t9 5q88 32 106 43q3 82 -6 182q-11 125 -33 125q-9 0 -32 -59q-3 -8 -5 -9q-1 -1 -2 1q-3 9 2 23q27 101 45 101q25 0 40 -124q12 -105 12 -232q159 61 211 127q34 41 45 85q5 24 5 95
q0 43 -5 79q0 12 -1 23.5t-1.5 18t-0.5 7.5q0 37 15 62q24 -43 41 -180q16 -142 32 -183q8 -16 25 -30q19 -15 49 -15q66 0 86 27q25 29 25 24q0 -4 -1 -9q-9 -36 5 -36q21 0 45 11q23 12 33 25l1 3q1 4 3 10l4 12q6 19 8 19q2 -2 2 -8q5 -30 8 -33q3 -5 21 -5q33 0 33 8
q0 31 12 48l1 -1q0 -1 1.5 -2t3.5 -2.5t4.5 -4t5.5 -4.5q13 -11 24 -11q21 0 21 22q0 10 -3 25q-1 7 -27 109q-17 64 -17 99q0 1 -8 17q-7 17 -7 30q0 32 11 65q1 6 5 10q5 0 5 -50q0 -12 16 -21q15 -9 15 -20q-1 -18 -11 -42q8 -38 25 -110q11 -48 11 -100q0 -28 -10 -52
q-15 -30 -31 -30q-5 0 -17 5q-12 9 -12 5q-4 -5 -8.5 -11t-7 -9.5t-4.5 -6t-3 -3.5q-15 -12 -34 -12q-21 0 -33 15q-53 -45 -111 -45q-16 0 -24 12q-33 -20 -65 -20zM442 526q0 -52 -25 -89q-2 -3 -5 -6l-1 -2v1h1q0 1 0.5 3t1 5t1.5 8l2 10q9 29 9 46q0 51 -75 129
q-3 3 9 23q10 18 12 18q70 -70 70 -146zM1147 -168q0 -12 -21 -45q-4 2 -10.5 6.5t-16.5 12t-19 13.5v2q0 7 16 46q19 -5 35 -16q16 -13 16 -19zM1069 -180q0 -13 -22 -45q-17 11 -45 31q0 1 -1 1q0 1 1.5 6t6 17t8.5 24q19 -5 35 -17q17 -10 17 -17zM466 277q0 -47 -24 -90
l-2 -5q1 7 5 23q5 20 5 45q0 24 -26 62q-27 40 -67 70l-22 -30q-101 56 -101 107q0 41 12 80q2 3 3 3q4 0 22 -25q23 -32 36 -43q101 -81 105 -87q54 -54 54 -110zM582 94q-2 -21 -33 -48q-26 -22 -58 -34q-57 -20 -92 -20q-11 0 -23 4q11 7 91 35q75 23 115 63zM856 -3
q0 19 -12 42q-14 -4 -47 -37q-36 -33 -48 -60q36 7 67 22q40 20 40 33zM866 -173q-48 45 -107 45q-11 0 -16 -2.5t-3 -7.5q11 -25 49 -45q35 -15 62 -15q25 0 25 10q0 7 -10 15z" />
    <glyph glyph-name="Name_CopyRight_" horiz-adv-x="170" 
 />
    <glyph glyph-name="Name_WEB_" horiz-adv-x="1439" 
 />
    <glyph glyph-name="_402" horiz-adv-x="2262" 
 />
    <glyph glyph-name="_403" horiz-adv-x="1971" 
 />
    <glyph glyph-name="_404" horiz-adv-x="1766" 
 />
    <glyph glyph-name="_405" horiz-adv-x="1717" 
 />
    <glyph glyph-name="_406" horiz-adv-x="1669" 
 />
    <glyph glyph-name="_407" horiz-adv-x="1581" 
 />
    <glyph glyph-name="_408" horiz-adv-x="1871" 
 />
    <glyph glyph-name="_409" horiz-adv-x="1875" 
 />
    <glyph glyph-name="_410" horiz-adv-x="1606" 
 />
    <glyph glyph-name="_411" horiz-adv-x="1700" 
 />
    <glyph glyph-name="_412" horiz-adv-x="1105" 
 />
    <glyph glyph-name="_413" horiz-adv-x="1112" 
 />
    <glyph glyph-name="_414" horiz-adv-x="2542" 
 />
    <glyph glyph-name="_415" horiz-adv-x="133" 
 />
    <glyph glyph-name="_416" horiz-adv-x="215" 
 />
    <glyph glyph-name="_417" 
 />
    <glyph glyph-name="_418" horiz-adv-x="133" 
 />
    <glyph glyph-name="_419" horiz-adv-x="133" 
 />
    <glyph glyph-name="_420" horiz-adv-x="500" 
 />
    <glyph glyph-name="_421" 
 />
  </font>
</defs>
</svg>
